<mxfile host="Electron" modified="2023-11-21T14:35:25.379Z" agent="Mozilla/5.0 (Windows NT 10.0; Win64; x64) AppleWebKit/537.36 (KHTML, like Gecko) draw.io/22.1.2 Chrome/114.0.5735.289 Electron/25.9.4 Safari/537.36" etag="4BoEne8xkZ2hat4gn_kY" version="22.1.2" type="device">
  <diagram name="Side-1" id="FaJsjGZpXhDDzg84zM6Q">
    <mxGraphModel dx="3738" dy="1228" grid="0" gridSize="10" guides="1" tooltips="1" connect="1" arrows="1" fold="1" page="0" pageScale="1" pageWidth="827" pageHeight="1169" math="0" shadow="0">
      <root>
        <mxCell id="0" />
        <mxCell id="1" parent="0" />
        <mxCell id="qv6ct7YELpAA5mXu1dIA-39" value="" style="shape=image;verticalLabelPosition=bottom;labelBackgroundColor=default;verticalAlign=top;aspect=fixed;imageAspect=0;image=data:image/png,iVBORw0KGgoAAAANSUhEUgAABMsAAAL3CAYAAACUBcJOAAAABGdBTUEAALGPC/xhBQAAAAlwSFlzAAAOwQAADsEBuJFr7QAA0TJJREFUeF7s/QfQHNeZpolOxMTduDfu3o24JnZjNu5VzOzObG/PdPd2T/dsN6Xplmmpmxq1kafoKZLylERQpCRaUZRIiZLoCYKeFOitQAAkQQcQBA1AeA8CJBzhCBD0lO3uc+vLqq/+r059mZVZmeWfJ+KJyjzn5MmTmaf+/88XWYV/dcrF9wVERERE7M4/+s/vHSq9MSIiIiJifpOwbOG6VxERERGxC73AapB6Y0RERETEfBKWISIiIpbUC6wGqTdGRERERMwnYRkiIiJiSb3AapB6Y0RERETEfOYKyw5/ekGiVyd2qkdEREQcZ73AapB6Y0RERETEfBKWISIiIpbUC6wGqTdGRERERMwnYdkQu2DN/jB/tfhKeEJctS88vlLcGx5bsTc8unxPeGTZ7jBv6a7w8PMvh4eW7AwPLtkRHly8I8wVn9se5iRuC3Oe3RZmi89sCw88szVxttgol/o0k3rpo9aX9Jm4WGzsp0Utt+2sU21lnLFeXb2scSwynsb4PZNjEnXcZuzN8Ufjsftq3efUvqfOZWMMqu776ZfCLHWR+GL4hfrUlnB/zV88VV+/X17Neqxsm/Rh+2wo+2k7ZjueRCmrn4ek3rRpng99bRxT87qKjfPSrtY12tWsb1/vL9lHY3/J2J7e2jr+2jF5x2uV8xQr5ck5aRx781jiOdlQj0nHpu2b40rG1n4+3fPU6CdrH0lZ89zUz1VzLsn7MXlf7kzenw89H1t73zatrTfa1edgYx9m/M1jqSn7lXbS/uGlLyc/C+RnwmMr9iQ/I+Tnhfzs8H62IGL1eoHVIPXGiIiIiIj5JCwbYuthWWtQ9lgSlO1pC8rkprx+E1+/0behWDPIaYQVGkCoGkR0stmf3LSL5sa9rpQ1ym07q9bnsBkSiLVtpT8ZR3PsTqhibQYs3tjFvGMx24rNc2L2Jfu/b6G4uem9T4ovhHsXvBDuqZksuza20Vfj/bU+E6NjFVuPVcbTHkYlwVxj2Qvg3PBNbB6/Wda6hs1ttL+W/dbHGB+PHm+7tXMkLthUd37jtabUybmR86ABY3P8dhxtTh2njs2eP7leuqzjTvoWpe+O/U/ZPC/N86aBW3ao1qa2b5xv6bs+/qlrq9cx2W+tnfTXHpjtTX5eyM8N72cLIlavF1gNUm+MiIiIiJjPgYRl7znkyHDHY+s7lsVKfZ52/fbUn94Zjjjl0mT54lsWJGMUpdy20zpdl23iNlYJypKwrC0o290alNVusuUGu35zXb+R1hvrqWBAw4rNUXDTGmakORXYTIUK9Rt3CRbqN/C2PI9JCJAEAY1+rFrXUNon+6+NY2rsDVvCqHrwcq8de+MciPHTXN6+EiWQMO1U7ceeG9mf7F+CnbvnqxvDXU+IG8KdjzesLSfrRlmXdkn7mvI65VRg1Koea107FmtLG3Odk2OIAjjvKTc9fr0mcb3dPt5n6/mYOj493nYb5+jx9cn7u2ltXcqlzd21/uyxtIzdjN+OS7Rjq49ramzt5zM6Tw2TJwFTjt2Wi8n7oTGPpgK3RrjVCLhSTdpOhcK6Dx2/vY71fb2UbDcVmO1qBmb6dJn3swURq9cLrAapN0ZERETEKrzy3sVJmNTJn9620N2+rG37ubW+nyvvX9JWF2+bV9l2ZMKyXtvNGKT9X372281lG4bZ/qSNhGO2XsvT9tkMypKwrD0ok49uyRNlEpQlN9iNm/Wpm2sbENgQxwQWjSCjXpfmxsxQIU3bJk97axzmSJkej4YvybGIjWOx5XU1DKkpY26O39+nmOy3plcn6hhs6FI/tzoODX1s8LMu3P7ouuRV1m9PXuvLiUkgVA+FrO3BUiM0io6zeYzNsUxdt9b2re3UqfOSfX7qxz51DqbOQ+v+0oIvOW45D02j9dseXRtue2RtuPWRNeHWeTVrr7J+e61ctq+fk9ZjaR13u3qMU+Orn1cdX8t5NucpT//x+yE+b1Pzt/6ebIZpjZDLte093Hp+dVxi8rRdrZ1sVw/MdiQf5ZSfDfJzQj+O6f1sQcTq9QKrQeqNEREREbEKJUPKQ5mwKsvvX/dIWLTyxcZeQrh//qpw9jUPhZvnLG6UhLB6865w5vS57vZ5LBWWHf30wmZdlvF2XijVTVBVtd2MQZ4M06fD7LK3LsZhmTxtpk+lxU49VZb20cudyce25EZZbpi9G2x9mseGFzaskPXERmAjr2pzvVafBAuNoMELYOSpn/oNvdW2s2pd3H5K6XMqiKgHE/Vj2tg4Fg076uOzx2GPR9tqSNI69sYYav1K3/ajf2nWx9faR1pAVA+D6gFQoizb9aRs6lrUr8fUNdHjs8c6tV6zsc/6/qfGkYylUdfaV+t2qp4XNT6+qesyVdayr1of9f00jsUcYxJ6GW95eHW4xa7b5VrdTPGhVVNK+5pJcNYMzerHouPW8bSObWqM9eO016SujE+X9Typ0l6Pr7W/Kf33g2jmVBRE2jBNrIdpU2q5tNVzrsdQn9O15cZ+pX8J6GQ7CcslNJefCc2PYxKWIfZVL7AapN4YEREREatw0GGZPDT0vWvnhfUv7U3288///C/hkec2hF//9nfJ+vY9B8MPbngkuTfyts9j12GZDcM6abcTO4Vlsiwhk7zqstdOlCeztJ0ET1Im9Vpmy3V7r29dFzW80ifBbFmsfTJM+rJjjddF6cuuy7b6ZFrsE6teSZ4qk49fyo2vPC0yb9mu5ILrl4DLdxvJR73kY2hy4yw353KTndzMN0IMDQiS8KKmBBQ2pBCb4Ubj9bbGUz31Mn3CpxE0mEDHhlJTy/XyZpvE9kAiaRO3a2yfhBAtAYQJDeR41MaYkrG6YZQZd8N4LDrmuhquGBvhhOqtJ8ec9FfvPxlTYyzN8yxPTMm6vDbLpsZZH6sNcJxzpsr+GvucGvdUmZiMoa1/M7aoTG3d79Ry/brX2ohJ20YfckyN40nCMBN6/Tz2wZV1TZkGY1p3szi3/qptk8Cs1r8eS7L/lnFaG2NsjFPH2DLOefVxymtSllwbcz1q6j6mzknruaifg9byxOR61K9JfY7U5659ck2CrroaBE8FwhLaSjvZvn49p47D7k/6lPYSrskTaf7TZYRliP3SC6wGqTdGRERExCq0YZksxyqy7G1fhfcs3BIuunVBWPfinsbe6sj6xbctCHctfMHdLq8y9sJh2ePr9ocjn34ytb6TEhjJzV5amQ2n4u/5su0kZIrDKG0TB2dF+45Nq7Pbx/1547P1WWVi87vKUv7nS/meIvtUmT6N0hKUNW6yNSiQkGzmw1NP7DRthgiNIKERIuh6PVCYChKagYUoN/MaHthlYzKGZJv669T2tr+pPmXsNqhqhkGNY2r22RhPM/Bojrm+3FTa1Ort+KfGMOVU8KGvDU0AYpfrQZmGGvXt9PhbxtYch1lu2ByTasem59K8To0rXo/2X+sj3lczFHLKk7FGY5Dl+nVplBt12+R81+ZQMq80+GqEX0nw1Qi96iHYiqkQrFFml6X+JqO2T/qt7UPHquPVOdM8XxnjTMbamO/NJ9ga61PzfmrutPTT7H/q3GqdnbeJ0XXREFPmST080wDNhsFTT+7F7189pqljru9H+pX2EpLLRzfl6bLku8sIyxAHohdYDVJvjIiIiDgeDsN3himyvP+NXzWN67ztq/LehVvCBTc+0thbnel3PxVuqt3ree2LKGPvGJY9sGZ3Sxh2hAnKRKm7bPnGlrIsveDJlsX1Xp0oy9pG9colHNPwLE/fWqfhl2rrVCm36xKOaXvZb56wzD6dZm39CKZ8V1njqbLazbD+75fyv17KUyXyP/vVnyrTJ7AawUntplpvtDUsqIcE9aCgJTSTsMCu2zINzMTGTXuiCQraAoVGfbOt0fahfdatl8n2ck6mgqn6NZdjivvUY1Pj8du6lrGL0Zg16NDl+j4b6jiaY5oKy6bGV1e213E2x9fYd/04G2VJuRmPGo9LbRlTvN76xFOyL91HZOs5iurjc9SwPm55rferwZL0EYdkU+HXVCCmYZiua1lr+9awLAnMpD6Zs9H1TBmn1Z5n2VbnvI5V3gct50Jt7KfeR6M/uZ7JuZ3qv2mjLA7O7LXSwEyNg7Op79+rzye9lroPHY/uQ9rUw7IXWsOyJYRliIiIiIjjrA2ksuhVWGX3L8uxiix721dh2pNla/v5ZJn4o6Vrk1Bs3tp9zeDskcbyNxcvaWufZRwOybINkWTZ1tt1XY63Ub3ybsKyuJ+0QCvel9XuV/Xap/XRzZNl9yxo/whmHNq0BGTNcKARKLSU1cttfaINKaJwwKp1un9tXx/LVJntV8tlOxl/M5RKbARCZh9ecNHsLx6rasaV9CGhRCOYSEKNxrrsq2kUdIhTQYctr495apzt+25Zj8t1TI1xTY3FasalNvap6vHUz6l1ah5456k1GKovJ8eg4zPa7WWOaAjVFpzpslm3bfQ1CcsagdmU9SAtaV/r3+4zHk9ijnGqzfeBlCdOLSftG+dEbV6XRFter2u5dmJ8rRpzw86hqY/0TgVlOp+Sa9+yr/p4tG9pI0+kyccwJSyT/0mTJ8sQEREREcdfG0hl0auwatD7l4eHzr76obB47bbGnkJ4ft325LvLBPkus+9d+3Dvv7PMeumyjUlAJl64dK3bppMSIkn4ZNdFXbehVbxul72POWobDamkrQ2j8vYt2+sYtQ+7nZoWotntrXYsomzrtRPj7yx7pHbzm/WdZfaLwZuBWe3mXIMTDRJseNC0cePfEqTIsq5HwUEzGGgJBFrDgXpdvU39pn/KZCzNEEBDmql9yHZJsNAME2yIMLWPuk7f0k9jH7audbwNJWgSa8vNsKvxmgQaDetj0FDDfnxu6iN09Sf76qFHfbt6v3a/3vloliXtnDGKzXFN9R2P0dbJNm37qSlPR+l51vMUt6nvs7bcHE99uan00Ti/0ofOmanQqaEJp1oDqoa2rhmc1QMyG6xJvfTfadwtmnFq4Fef02aex/PaqCGY7U+vhfYt2vNTX663EaeuT+PVzOWmKXOnfV+18TT6l/6krTxNmnxnWe1ngATn8jNB/pdc+TkhAbv87PB+tiAiIiIi4ug66LBq0Pv/0cz5Ye6idY29hPDE85vCd694IPlfMRX53zLlf830ts+jjL1QWCbKk2RPrj3g1uVVAiIJjsQ4LIqDKbvu1alxQKam9RWvS2An6xrc6RjlVbTbqRLW2cBO2qu2na236zJmGxRan8j7v2E+szXlf8Os33zb8CS5qY9DALV5Ux7baJ/cqJtAIAoAWp+Sqd/wS1miCQ00mBJb9zk1rnoYIE/OaJBgv9NJ99PYb9LvlNr31Bh133Vbt6/11zhPzWVdb+yvafKF7FPKeU6zfv6nrkFzXzXr50O1Y9Oxto63qR2zsWWMxmRfyba23/o5aTlHLedJ1P3U92uX7diTfhp9tV7DtS1BWmK03myj9TU1wGqGaEmgVi+rb9MaRLVeW331rLdrPe76eFvDLV1vlDW2a+u7eQ6cuka9nrOWa+Vco2SORPNqat7U+5rqu74v7Uva6lNl+r9hSoguYTr/GyYiIiIi4vj6k1ueTMKcTpYJi7Ic9P7b9nN9fT8/vXVhW128bV5l28JhmShPls0vGZiNg3JTHYd9RUwL4cT5SVhWf7qsY2DW+DimfH9Z/SkzG5zF4Y1zI9+4Aa8va33d7JBGb/Lr+7gnCoxUCQQSdQxmX3EYIEob2U77ki8xv6/m1PHUlHJdTvZTf63vo74/3f+UU+OzfbeXWWv7rp3LWAkns9R2Xv9TYy7u1DHXbe27dX/e9vY6tF5Ddaq/eHnKqfayferckesZrbfVN2wGb40gK7ERXE1tp2OuK/9zpB3LlO3jFPV45XUqvIrPR91427Tjn6prL/POY6ydU/Gcae9Xt6vPPxuUyaPI8jOh+VTZir3Jx7i9ny2IiIiIiIiYbtdh2dlLVjQ/jtlJb/txUp4sS3s6LEvZJmu7+av3NwKzfX5gJh/J1MBs8fbkI5mzn92a3DxLcCY30mJ7eNN6s6433zZksbbcpEc3/fU+a/2rjX0l6nojuJvafyMIEGt9x0GFlGnf2pcEgMnxaN8Z2n0lY3PaaD96jtrU/UUmYWTjVc6xfARWznfymizXX5PgUmy0t95f6zseTxnlWOJ9JNp2en2SaxGfo/TzlGnUV9r8yTIOPL3QSsp0Tsg+Wsct1sfhjjGyfdss/T6q1r12NVvayVga49F6mV/yVGl7UCbfVVZ/qkx+dng/WxARERERETHdrsMy8dG1r7jhWKy3LXZ2wZp6WNYemEXfYVa7SdbvMEtCs8aTZnIjnQQ5jfAsLbxpU4Iie6OeogZKzb4zjPehfSShRBSySFnSv+lbj6MtmErUsvqr3W+yrdX2U0A5l8k5NUo4Oec5sX7OWzVtbR+N5cTGeNW0cXtlLTb60/7tPuy2ebV9Ns9vvBxtE1/fVOMQMplrJhhKgq/W0KotJFKjMYjt56W9TdOUPmYtai9r6behrbNti9p6jo1eW7FWJ9dY5p88VdoMypbuSn4m2KBMPsrt/WxBRERERETEdEuFZdhbk7CsEZg1v78sCszkKZJHlu2q3Si/PBWameBMbqY1vKk/eVYPb9Jsu2EXzU16y3LNZLtan9r3VHhUL2vuU21sZ0OMlvBEAoyasg/bdxxEta5H6jbNbbW9vk6dF3n1bKuTc5mc0ynlHEtQkZxv77XRpt5e+2j0V1PHMqWO1Y65U3l9uWWsxuY20Tmx1ySum+q/g2abZn86J1JszhmzbrXBkFXr7bhFO4ap86GvqtbVNO3jPmy/zXK7bdxn3EbXrU55+z7qfbZeN2c/jbZJm9o8krmVfEdZ44kyDcrkS/3l54R8hFt+dng/WxARERERETFdwjJERERERERERMSGhGWIiIiIiIiIiIgNCcsQEREREREREREbEpYhIiIiIiIiIiI2bIZliIiIiIiIiIiI2AjLVr70GiIiIiIiIiIi4kRLWIaIiIiIiIiIiNiQsAwREREREREREbEhYRkiIiIiIiIiImJDwjJERERERERERMSGhGWIiIiIiIiIiIgNCcsQEREREREREREbEpYhIiIiIiIiIiI2JCxDRERERERERERsSFiGiIiIiIiIiIjYkLAMERERERERERGxIWEZIiIiIiIiIiJiw0rCsuvmLAnXzFrs1mG637jsgfBv/vG8jh5+7q3u9rGfPe7kTG07u93QuWVXWD33s2H1/X8dVm3c7LdBRERExJ771KrtiV5dNz61cX+48ZkXw48fWx++NWt5oixL2YL1+9xt8vrUyq3hhtvuDz/62eXhlFO/kyjLUrZg6QvuNp2M/57Oo9cP4ij4rdsuDv/2lI909EM//nx4eOUat48qPH36E+EPDpvRwavC3027PTzyfHU/n2JvuezucOrHv93RH3/tJ+GZJeXuW/1jnBE+cepd4bFlO91t+uFVM64NH3nvH4d/9z//f8K//Tf/7/Chv/iDcOGPfuS27ZVb/qf/qZRen3ksHZZ977qHwn/6zJnhDw87Ozy38RW3zai6au2WsPaBK8L6G74WNl744URZlrJVq9a52xTRC8bS9LaPlV/O//RP/9RRbef14TntknuTa6zrshyvH/u9m5vrZV218Gdh/YN/H1549LCw+vFT3DaIiIiIWK3LtxwIP73pzvDJr32jWXbBtbck6vrTa3eGK+94oLme12c27Q/XLNocvn7/0nDsHc+6nlSru+apzUlbr480n1mzI1xdG/dJ3zg5HHPMMa5SJ22krddHmnn/vlYJy7Df/v4f/mdXr20nJQh76623Mv3mzAvCn53zmfCfzvh4uG/JM24/ZZWQyNu39TuXPRL+6os3hz///I1hVu3nhtdPWSUI8/ZtvfWi28K5x34/nHnEOeGpJ7sPEL1jfv31N5LyD39tZli++YC7XS/91te/FP71v/7Xrice/o/uNr3QC8CK6PWZx1Jh2bcuu78ZnHx3evFfmlV66hOPhxMemuPWFXXVppfD2vsvCRvP/69h03f/ravUSRtp6/WRRy8US9PbPtb+MtckOv7lHev1E+uFY1nr5dwfVt/9J+G1FceFX607PKy+/ffCyhd6968FiIiIiFj3gutuDV8469wwf/mWcOP9D4ZzL78yHD5tWjj85GnhrEsuC9feMys8u+7lpM2XzvlBWLxxr9uPpzw95gVknmfOXR2Wv3TQ7cdTnh7zAjLPM2vjllDQ68dT/l7O+vs6Lsv79zViVUow9u6777bY67BM2v3XHx4d/vfv/F24Yf7Dbl9llPeUt2/rty97JGn3tyfdGv7s6OvCzQ9V/6RbnrDslotuS9qd/8UfhdMPOzPMm/Oc21cn045Zf8Z84Es3h2fW7nG37YUP3Hlj+O/+u/+LG5Spt1x7ubtt1XoBWBG9PvPYVVj28JKXwpd/dHsSkPzVFy4MF92+wG3XT//kthmJXl1R1988rRmKbbjs02Ht3GvD6uefC6uWLQ1rHr45bLj688369VceEVa+2F3KKyHYG2+80dGqwjJV23l9DNpVS+4I62f/VQgvfCJx08OfSJ4089oiIiIiYrU+vWpzOPa0b4dTzj8/3P3gg2Htpk1hw+bNYdajj4ZzLrkkfOqkk8K8p5clT6A9snij20esPFHmhWJfv//5cOETa5PXuE6eMPP6ipWnxbxQbNq0aeGb3/ymWyfbeH159issm3H3k+E9hxzp1qV57GmXhbMuvcut64ey/6Jj7lY5TtlX7CCPf1gcVFgm/unZn04CM6+vMsp7ytu3VcMy8S+/cFP406Ovc/sqY5GwTPzeMeeG0z97lttXJ9OOWY9RfO/xN7jb9sJvff4fw//wf/+/hp984f3h5m9/NPz7/+//qy0se98f/wd326q1wdfrTz+d+NIf/EFLubj9Yx8Lb77wQth3wQUt5V6feSwcls1++oVw/A9+ngRlf/O1i8OV9z7jtuu3VYVla+bfVw/CzvqPYc3s9P7WPHZP2HjunyRts9plqWFZWPj/SLXbsCzLYQvLVm3ZF1atXRZWLX8g+Z6yPUuOa4Zl+1d+I3nSbOXS+8PKtUuS7zPz+kBERETEcj6xdGP45Fe/mgRj8c23Ov/ZZ8MnvvKVMPvJ2t9lTh+x8h1lX7xnSVsYNnftjpZ+H1izvaX+83c8Fx5bl/3kmnxH2Re++KW2MOyrtWN47bXXwt69e9vqxOOO+3x47Ln1bp+xef++VkclLJP9vf9z33HrhlE5TjneuFxDs7h8XD3plNOTIKwbDz/2RLdPa56wbOe+XWHTzpcSl21ZG/7T6dV/HC8tOLLu3HMgbN62N3Hlhh3hz4+73u2rjHnCsn2794WXt76c+OL6F8NZh5/t9hX71PQPtZjnmKWN11cvPO2oD4WVVx8TDt7/tcQ9d305nHfc+8L/8b/+j82w7H/47/9v7rZVa4MvCcrkd8aba9e2BGYSlL1z4EBSt/d732vZxuszj4XCsnuf3BCOPufGJCj7x29dGa6f87zbbhBWEZatfnZB2PjjD4VNZ/yvYc3DN7ltrGseuilsOv1/CRt+/MFkW69Nlr0MyzR9tr+843WvD8/4Y5Zzn94Yjvve9c3y2MO+e1W464lVLX14rnrm2rD6zj8Kq2f+j2HNXX8U1s3+67Dp0U+Hf37hU82wTHxx/hFJ3Zq7/3Ot7f+cfDRz1cIfu30iIiIiYnHXbjuYPFGWFZSpi1esCJ/4ylfD8s2dv5B/xlPtT5X96LE1ST+Pbng5nD53RXhhz6vJ+ikPLGtpd9XC7KfLrrrhdjcMO+GEE8LDDz8c7r33XrdelG29PmPz/H1tywjLemNaWCbKcaTVjZsSes1ftLgrZVuvT2uesMy6e//e8IdnfNztq4zynvL2l+aefa+Gv/h89U9d5QnLrPv37Q9nHXGO21esBGRh6UlN7THrzxXVlnt99cK9D53bDMpiN974+XDHmX8Xvnfi37rbVq0Nvnb87d+G1x56KPmd8dqDD4btH/lI2HPKKeHt7duTsr3nn9/SXvT6zGOhsEy+l0wDkcPPvC6cfc2DHb1nQb5/tSlrFWGZPCGmH72M6750wW3hsNOvaSuXL/yXbdbddX5bnTXtf75MC8ukXJV2Xp+xvfplrtdc1yUou/7++S1jtM5+cmk49OsXtfThufru/xL2Lf18SzCWx7dWHZWEZl6fiIiIiFhc+Y4y+eil3Gyop/34x+Gjxx+fPE1my8ULr7kmXHzT1Bf/p/nDR9a2BGDixU+uD09s2hW+PWd5sr54696kz3PnrW5pJ9t6fao/vPBiNwiTj2D+9Kc/DZdccolbL8q2Xp+xgwzLJCDSJ6fEOBDSsMy2iwMw7Veds2hDsp0tk3XVbiv9an/yavuSMt2/ttc28qrtZH9ar9tonbST7eP9ema1y3Pu7Dh03Hac0oe0sdvY/sS4z6xx277TjM9NHouEZfpEmW7TTVj28IqF4cLZ14dHVy4Kr7/xevjZnBsSZVnq+xGW3fTAsnDZ7c8ky7c+uCJcctszyRffy7KW9zos275lR1izZG3y9NirBw6GdcvWJ+sSjsnrnpf3hK0vbA0bVmyoJCxLU9p4ffXCl+dPd4Myq7Txtq3aOPza8Td/kwRl8nvjzZUrw9u7diXLXlAmen3msVBY9t7jz28GJ3n90yPPdfsqo3yZv4ZjnTz6wVluH57rr/9KEnytnTezrU6PJy5fM+/nyTaybVxnjUMyVcIlLyxTpV7aeX3G2l/meez2l7mcBxuOeXrnKnbVM1eFtff8SXhz3dfcUMzzrU0nh3Wz3h9Wzfc/C/7tn9za9otIyry2iIiIiFj3vCuuSr6jTMMw8a8OPzzxb487Llxzxx3hwKv1J8DEhUuWhJPO/b7bl/WUWfVALM3LF25I+tuy72A48e7FLXWyrdenOu1b33aDsIsvvji88sorYefOnW69KNt6fcb26+/rOPDRYMa2kQDGBjSyLG2krddGwx8NZTQQ0mVpq9vF66KsS7kuizbg0dDJtrf7k3rbZ7yux6zjzVL2k9YuPk5p6+1H16WfuL2s221k2e5P2+i61yZW2qdpz1sRi4Rlsd2EZVte3paEYX9y1qeS0EzqL3nw5mZ9p7Cs23szGxx94ycPJusv7tiXBGKyvGzd9vBfT7gxHHb6PUmbTmFZt+OQsOzJ2QuT1x+eeH547J7Hw5WnX5UEYrK+YeXGpG7Rg4uS/xXz8m9fObAny/Ie44t73m4a11lfWL4wHJh9qhuSia8+cHLYvKz+8yHLKsblBWDyRJkEZfo7af9117ntxLi/vBYKy77y4zuaodE3fna3+yRZ7DWzFrt9lfG4hx5wgzHPv/9FvkesxY0/+9sk+Fr1/DNtdXrccfnqWlvZRraN66wajFl7GZbpG8v+8o7LBh2WJS66pBGYfd0Nx6xvbTwlrPvF+8Pqx0/z+2p40vevb74RZdlrg4iIiIhTHnPaacmX+euNh6hhmSpPmr1e+zsvuTF59dXw0RNOcPuyZoVl8rHLt955J2x95TX3S/67DcvEVatWVR6W9fLv6zjQkWUbTIkaCum6BDVxWGODo7i91QvH7D7jbaVtHPDIvm1Z3Cbuw/avesfgKf1mtbN9e/uRsWnw5+1TttF6MT4/Xp/x8cXKmKU+Nj7vRex3WCZe/didSbl4yq0XhtcaT5WJeZ4s6+beTN5Tuo/raj8bZP3qexYnr3961LVBniiT5R9ctyBpk+fJsm7GIUFYPQS7ojmen5z0syQou/3SO8Ku7buSNvNnLQg//8ktlYVlaUobry81zzG+8c5vw40Prk5evXrrS8/e7wZl4ssL8v+HCmXH5QVgyUcvG0+UiQdnzw7bP/Qht23cX14LhWXznn+p+XTZh792UXhy1fB82bqGY15dXjee/956WLZmU1tdWlgmyjabTv/3bp2aFZZ1ctBhWXzssuyN05p2rlwXXRLW3PNfwq/WHe6GZOJv1n82rJ31gY5BmSpvwrQ3IiIiIiK2esS0U8ILL73UvPEQ47BMnLdwYVL36sGD4W8//3m3L6v3MUxVPoYpH8c875FVbn23H8MUO4Vlw/wxTLscK+Ua2kjgEwdYcRsJZmTdBkFiHAaJtr84nLJhkxrvP26jYZK8pgVL8X6kjTWtndXuR8+dp44tHrco9bK9rtvzo31qnTXeLlbPv9Weo6LasEyW81g2LHv+hdXNsOzce69sqcv7Mcyi92bynmruf+32ZP3Qr98aPvLVmeHIs+5LXqVs1oJ1SZu8H8MsOg4JwiQUu2jaJc2PYMrHLiUY++5nzwgP3f5wuPbc68JVZ10dzjv+h+H+a38x8O8s63SMWU9weV45/9Ew7Z4rw9/denk49JYrwtfuujJc/Mj9YflLr7rt0ywzrjj8st9RJk+USVAmywcfeMANzOL+8looLBNvf2x1+PR3rk7CEHmVda9dv60iLNtw1TFJ8LX6qXltdXFgpK5aubr+ZNmFH26rs3rB2BHn3pKUd/IDX893XPaXeR7z/jI/6pwbWo5dluNjifXOVZarZn8qvPzs1P+CGbt/+efDqnv/wt0WEREREct55sWXtn25fxyUnXD66ckTZVInX/L/hTM7/69v8iX9XhAmXvjE2rBq5/7k1auX/xzA61NN+4J/sVNY1s0X/OexTFhWNJzxQp+4jSjLGtRomd2fVyavNtSJ18UiYZmU2/2rWSGYNaudHXfafqz9DMt0WzXPsWZpwy8bgtn3rZjWzuvTGodl8t1kh/70i0kg9pEfnxD+/amHhoXrljTr+/GdZfL9ZH961LVJ2bSLHg4X3LiwGSJte/mVpE0vv7Ns2VPLwxmHnZksz/n53OSpMlmWMgnOFj++JFn/9qe+G15Ys3lsvrPspmUbwufmzAn/28+vdZU6aeNtW7U2+PK+zF8CMgnKpOzgrFlh+wc/2LKN12ceC4dl4jAGZlWEZetuPSMJvtbe2fok1/0LN4T/85gfhD8+/JxwyyOt/8vjulpb2Ua2teWxEnp5oVKstPO2z2P8y/zGE/+fbdr6bn+Z9yIsW33v+8LrK452gzLxnfVfCqtv/bfutoiIiIhYzmvvmRXOueSSlhtuDcnkO8uuvv32lu8su3LmzPCT6zv/7/Hz1+0Lx9/1nBuG3bxkc9LXjKc3uvVzO3yKZf6STeHzxx/fFoTdfPPNyd+jcnP5QO0GKq4X5y5Y5vYZ26+/ryW80XDGhky2jZbrugQvcfiSFexI/xoS2TDIKtt6fUhbKbdlcegUt7HHkXZM3jF4ZoVlOmZZTtuPNR63GG9jz09an1puyzylH2nXaVx5zArL5NUue+28Pq1xWKbfU3bt43eFpzcsS5bfe94R4ZVX9yf1/QjLxGPOuT8pk49kzl24PlmWp8u0vtdf8J/Xqv43zDT7FZbdvfLF8Df33e2GZFZpI229PqrUBl9vvvBCMsf3X3llS/lLf/AH4c21a+t1117bUuf1mceuwjJx2AKzKsKyVcuWJh+n3PS9Pwyr1m9tlsv//CnHKcpyc5sXdjc/urlm4dypcsdBhWWrb/7DplX9Mq86LFu1ZV/yv1v+08ZPN8Mx+dhl/LHM1Xf9QVi1Nt8fNoiIiIiY3xW1v8c+ddJJLf/z5RfPOit88Kijwh1z5jTLRPlus4+d+IXwzNptbl+x1zyV/nRZmtcsyn6qTL36pjvdMCxL2cbry7Nff1/HQZMEOnEQI21syKNt7HaybgMxW2f3Ia9x/6L0Ke3iYCoenxiHTnGbOGSSelHrdQzxvjy9sEz7j8tlPT4220aWi4Rloten1Mf9eOo487Tt5OeOPr4Zilnt+1P02nzkY51DrTgs62S/wrJOjktYlkevryp9fsuB8KV5j7nhmKe0XfpisY9kFtUGX/suuCDs/d73WspUCcwO3Hhj2PnJT7aUe33mseuwTHzouRdbvsPs+RcOuO36ofyvl0W+zD/NdTNPS8Kv9Tef0ixLC8ukTfJU2c87f4/WOIVln/n29PDgwuXu+MWlazeH93/xx+62rqsXhjX3/J/NUGzn08eF1Xf+x7D69v8tvLTw8+GfX/hUUr5+zt+GVUvu8PtARERExFI++uyK8Jmvfz35iKXccMv3ku195ZWWm3AJyo445ZRwx0Pz3T48l790MJw5d7UbinmePGtZWLIl383X8tqN3Znn/MANxTy/ecqpYcnGvW5fnr3++1pClLQgRcq03mujoY+ENtrGhkIa0qRtr9t529jgSNuWDcu0jY5Ht7f7T1Pa6XZWr60ofdp2dpzxuEVpY8cZh2ViPIa4jyzzHGO3ShBmAzJd9tp2krCs1X6GZZ7Sxtu2l16/dL0bimUp23h9VaUNvrrR6zOPpcIyUQKzvzzxx0lo9tzGV9w2o+SqtVvChh9/IKyde22zTD56KWGgHOeM+59tlq959I6krTyRpmVpjlNYdtcTq8JHv35xM0CMlaDshgemzlNHn7s5rH/w78LBFceGtfe/L6ya9ZEkQFu5fmXyXWby5f+vLD0+bH78s2Hlk+f7fSAiIiJiaecufD584itfDRdec01YuGRJ8h1lEppJgCYfvZQnyooEZeozm/YnT5iddP9SNyATpU7aSFuvjzSfWbMjeVrspG+c7AZkotRJG2nr9ZFmv/6+Hha9kKiXesEVFlMDMithWTVOYlh22vyn3EAsyxMefsTtqyq9AKyIXp95LB2WifJE2TgEZb30sHNmJkFYJ/N+mb+n/HIuqtdP312/Mqy+848SJTiL61ctfyD5cv/Vt//7eogW1SMiIiJidS7esDtcfNMt4evfPy989Pjjk//18otnnZ18R9mi1fk+epnmo2v2hEsXbApnzF0VvnDX4kRZlrJO31HWyUefWRsuverGcPpZ54YTT/xCoixLWd7vKIv1/n7upNfPqChBWb/CKwnm5Aktrw7zq0+UxXptO3n0jNOTwKyIn7p8mttXGb/ww9ktHz3M41Fn3+/2Vcarv3ddEpgV8fLvXuX2FStBWB69bXvpuU8+6wZiWX75kcfcvqrSC8CK6PWZx0rCMkRERERERBxN9WOLvfy4oO7D6rVDRBwGCcsQEREREREREREbEpYhIiIiIiIiIiI2JCxDRERERERERERsSFiGiIiIiIiIiIjYkLAMERERERERERGxIWEZIiIiIiIiIiJiQ8IyRERERERERETEhoRliIiIiIiIiIiIDQnLEBERERERERERGxKWISIiIiIiIiIiNmyGZdff9SgiIiIiIiIiIuJE2wzLzr9xASL2SS+5RkRERERERMTB2xKWrdz+JiL2yA27304kLENEREREREQcXlvCshW1G/pnNr+GiD1Q3l/rM8IyKccpvXOEiIiIiIiI2GtbwrLlW98IT286iIg9UN5f615+KzUIkvI968/AmoRliIiIiIiIOChbwrKlL70entr4KiL2QHl/rd35ZmZYtnv9uViTsAwREREREREHZUtY9vyLr4eFG15FxB4o7681O7LDsl0bzseahGWIiIiIiIg4KFvCsiVbXgtPrj+AiD1Q3l+rt2eHZS+v/ynWJCxDRERERETEQdkalm1+LSxYdwARe6C8vzqFZTs3Xo41CcsQERERERFxULaEZc9tPhieWLsfEXugvL9Wbn8jMyzbsfEqrElYhoiIiIiIiIOyJSx79oVXw+NrXkn1K9+5KrznkCMr8bAvXuDuA3FclffXim2vZ4Zl2zde31F5/yycf3lz/a8P+1L44re+5dblMWubbvqrQsIyREREREREHJQtYdkzmw6Ex1bvS1VunF96elslSl/ePhDHVXl/rdhaD8W8N6OUb934847Ke2fB/KuS5S9867Tww4vOdevymrVNN/1ZZ1xzUfjE0Wckr3nKVcIyREREREREHJQtYdmijQfCI6v2pio3zl7w1Y3Sl7cPxHFV3l/Lam+6rLDspU13dlTeO/PnXx9+cNEPw4mnfsets2WdzNqmm/5iL7nikiQYu2nmFcm6vMq6lMdtVcIyREREREREHJStYdmGA2Heyr2pyo2zF3x1o/Tl7QNxXJX317IXs8OyFzfd11F57/zgogvChw77qlv3xPybk+UTTz09WRdlWdtIvZZLP3abvHWi9pfHS664LAnIzv7hTxpB2WVuO5WwDBEREREREct4yfVzk/tPT6nztlFbwrKn1u8PD6/Yk6rcIHvBV5Zp20i5tw/EcVXeX0u3HMwMy7ZsmtNRDatuvn2GW/fE/Nsyy+225130k0J1uixtpF6W83rqWRcmP5Tk1au3EpYhIiIiIiJiWb3ArFNQJraEZQvX7Q8PLd+Tqtwse8FXlmnbSLm3D1XqrTc+uMptl6Vsk2fbbvvHyfLC6x9K3lheXR7l/fX85uywbPPmRzoq8/WmO+pfvv/4k3e31WmZtlGlXPzgYV93t+lUZ/sSTzj1nJa2Wd5wyw3JufvaaRckr7LutVMJyxAREREREbEKL5x+fzMok2WvTWxLWLZg3Sth7rLdqcoNshd8WeM2adtIubcPVeqvn7syWf76j24N7/3MaW1tqtLuK085Tp7nXfmL5pvLq8+jvL+WbH41Myx74YUnOirz8rEF94Ub77gxWfbqRFsnIZiWy3LaNll18b7yesMtNyXn7aIrrk7W5VXWpTxuqxKWISIiIiIiYlVKSJY3KBNbwrL5a/aFOc/vSlVulr3gyxq3SdtGyr19qFJ/3ZwVqetVmtZ3L/eJo+P3r5gKymTZa5NHeX8tfuFAZli2ccvTHZV5+cjCOcnyuZdcET542Dfb6m6485ZmuazbbWRZ6nX7InVSJst5veK6elAmr3nKVcIyREREREREHJQtYdkTq/eGB5a8nKrcLHuhV5F1W+7tQ5X6a2Yvd9dl+dPfuKjZh5TLsvqD6+e528XtvDayrH2rsq5tcbI89/KpxzVl2WuTV3l/PbcpOyzbsPn5jsqcnPfkvOb68af+MHzwsJPb6qRM1uVV1PLr77ijObe/d/FVLdtk1cmr1omyXynvhYRliIiIiIiIOChHIiw76fxbwns/fVpLnZTZdQ3INBCz4Ze3LO21Dy2XfaQFbf1wdp/09o2+/Q7L1m9eiTUJyxAREREREXFQtoRl89fuC3OW7kpVwiMv9Cqybsu9fahSb43rrpu7IlmW17j+M9+8OPzwhkda2mo7q7TTNhKUff2CW1v6kXLZbm5tuc1l3eh/l1WaD1ak13e23tg76Jwjey5H2baPYTpt8ijvr8Wbs8OydVvWYU3CMkRERERERByULWHZk+teccMWVcIjL/jqRunL24cq9TfMXdmxTl7jvj77zYvDBTc+2tJW2z1UK2u6vK6Uv+8zp4XPnnxxs0zL4/8l8+Eirkh33pDpjbGpd2wp2nM15dQ5dTXXxF7HYdJ+wb9Xn0d5f3X6gv+1L27GmoRliIiIiIiIOChbwrKn1u13AxBVwiMv+OpG6cvbh6pBVZ46Wf/xTY+GebXlm2rlsq4hkCzf9NCq5vLJP74tWX5kxd6mUn5zrc1hJ1+S1CflKxvlD69Klh/tsY+t6q/eGKpUzlmL5nx76vXKtHZ9VTsf+uU5F9+dhGVeXR7l/bV088HMsGzNi9uxJmEZIiIiIiIiDsqWsGzRhgPtIYfx0yf+MAmQqvCDnzrV3YcqbTSoEptBzKp63c/nrUqWRVm2fc+ctzo8tmpfol2f+cjqlnafm3ZJeGx1vc0ttbrHa8v/9bPfTpRlqdd2si4+4bmmiK90dH6P9PbVrjfmFJ1zoecpj3LuXRvXLlavd6aNeWLn0rAo769lL9ZDMe/NKOWrX9yDNQnLEBERERERcVC2hGVPbzzgBxA5/cI514W/Ofac8Omv/yzx4RW73HZpNp98Wp2tF7y0uKauBDoSdrWFPMb5sWuzfKXFBXlcV175+F43en0V1jumyPi8+OeuYXS+vWsSq9fTvdZGb6602Jhf3tzrh/L+Wl5709kgSJatq146gDXj84KIiIiIiIjYa92w7JlNB4L7pE8H563cnXzf1ye/dmGyLGUnnHVNOPT474c5z+9oa98SctgwxOg/9WRcW7c9qJnyZ7c8njwlJstuEBT55Lr9+Vzf6sIJNT4P7rly9M59bHwt09R54M4RozfHEs1cjOdp1cr7a8XW9rBMlxERERERERFxMKaGZc+98KobNGT54NKd4WMn/iCceNY14dFVe1rqTvvZneH9nzs9/GLRiyH5KKAJOawL1u5PNwlX/NAldmHDOx5b2/yo5R2Pr20LeZ5af8B3g698fK5b5WmiUdY7prx65zLRO/c14+vUorm+3rWP1XnjzqmG3lxMlLna0M7nssr7a+W21wnLEBEREREREYfM1LBsyeaDUyFDTj910k/CtAtvba43A4v1dX9w7dzw4WPObq5PBSASjkRuqOsGLMaWUEYCnRSnQp9X291U95mCPmt9oZgSlrR7cMC2j8kbe6bmnHjnLEu9Du41alw/79o2NXPBmytWnV/u3GvMS52nbTbmtZ37RZX31+rtbxCWISIiIiIiIg6ZqWHZ81sONkODbnxK3eBrg40WG8HHVLjl+4y6ydeGNm02gh0vHPJcbN3cWQlCclk7x7Fy3gehNxZ3zI7eOWjTnEPvHHt6AVysd+0TG/PDmztWL2izenM3sTG/vbmfRznnawjLEBEREREREYfO1LBM/qc+LzzI8mnVhBHqMxtf9U0CDz8IsT6nmjDFc/ELB1tNwpwpvbAnNg6S0ly65bVsa+fQU87tKOkdQ6J3zEbvnHl61yA2vo7xdfbmQouN+fNsB5tPunlztaY3t3Xee++JNOW8rtvxJmEZIiIiIiIi4pCZGpYtf+n14H8crtVmkGCDBuOzmw62+0Jd/6OArbaFJJFTgcprrW6p+3xO3TDI2Bogvd5q7Vypct7KuGLrYPTGUkR7DtrOjzl33rm1etfGU69v23VvzAdvrli9uRar89Sbw95cT2y8H7z3ilXO2bqd6WHZorV7wq2PbghX3rcMa86cty4sWLW7eX4QERERERERe2VqWCYBihsGNHxWfaFdL3hIdEKLNJPQQ546cpx6KikKUSRsaegFMdZmgFM7cM/lTaNgSIIlYxw6pblS3da9q7a9UUqvz9w2xu8dm2d8ntrOY+P8euc+sXF9vGtntde8bT405ok3hxKjOZelzF13Ttf03gP6/vDeO6Kco/Uvp4dlEpQt2bA3vP7u77Dmmq2vJudEzw8iIiIiIiJir0wNy1Zuf6MeEDgmAcIW33oQ8ZpvHG44toQhtUHFTgUqr/turdsW1hjjYGfFtnangiIJmYy18yKuyql8iXvijmzXZPpmxXr7qOuNrcXG8XjH6qnnq+08Ns6vd+7j6+NdQ1WvtzsXEuvzxZtLdq55c9Eqc9ed04n+eyExeu+ock427H7LDcuWbd6fPE3lhUaTrJwTOTd6vhARERERERF7YWpYtnr7m22hQPOJnShIsC598fV2X6rrhxmtek9vWadClDda3Va3PZRptfmkVSPM8WwGXE3frLtjSj+EmnJt7E5f+Shetm9N+XK66xt6dU1tX+6+pvTGmhgdl3fsVnvOmucxOr/eNWjauF7etbTq9W+bF4354s2lptEcTFPnsTfHvfdC08b7xr6X5Dxs2v22G5Y9v2kfYZmjnBM5N3q+EBEREREREXthalgmQUgcCMTfzxW7/KU32t3aanuY0epK1QQhsc3Aa9ubU26vOxXIpLtGrB1fmnEgVPetujvrtgZPvuvVl9PdkOYu9e2mG0tq+2r27+27pjfWpo3j8o45Vs9X8/w559a7Bk2ja5emXv+WOdGYJ94catqYb95ctMbz2Jvr3nuiafRekuPeTFhWSMIyRERERERE7IepYVn8VFIzKNmVbhzutLj77bAxh/K0TZYvpPrOlHvqbs7r3nS3pLnv3cQXc/iS9ZV2t3Zy/7thW9Nfdml9e+nL3YfRG6M9Bu8YY/X8uOeupneum3rXyFGvc8u1d+eGP5es3lyMlTnszu1E/z3RtPH+0feTHithWX4JyxAREREREbEbH1ywMlx5zR3Jq1cfmxqWIWJ/jN+MhGW+hGWIiIiIiIhY1NmPPx/uf/jZZFleZT1uE2vv1ZthmdyUImJ/jN+MZcKy+x5dEt5zyJFNvTZVumLjzmQ/8urVZ9UVVc4JYRkiIiIiIiLmVYKxBx5tDcdkvVNglhqWAUDvqTIs0+DKrkt4JsvdhlZlwy7CMkRERERERByEXlCmdgrMCMsABkiVYZkEYx856nS3jrAMERERERERJ0n5jjJd9r6zzNbHEpYBDJAqwzJRwqmLbpjVVqZ+7ZyrkjJ5jcu0ra2L20gYp2XeU2vyqvUyjrQ6UcqKSFiGiIiIiIiIedUwTAIy+51lGpgRlgEMKVWHZaIGWhpmiTa0irV1smzDNlsn/dlgzWsjy7rfOCyL+4pDvU4SliEiIiIiImJeJQwT449byrrW2XIrYRnAAOlFWCZKKGWDKxtUiVIuZaoXaMXr2qf35JrUifHHQG2dLFu94C1LwjJERERERETsh4RlAAOkV2GZKKGWBlIaWsmyBlfaTgIurbPtvHVRnxiLgzixU1hm64pKWIaIiIiIiIj9cGBhmdw4W7ds292oyY9sk2fbbvsH6DVVhmUSXtlgS4IrfQpM3gNaJ+001NIQS+vssreuSr9e37KsIZqGarZOt+lGwjJERERERETshwMNyzTAmj5zdjj0mDOS5V5g92VJKwfoF1WGZaLMadV+zFGWbZmEZbIur2JaWGa3iz+6qW3sNrZNHJbJq9aJdnx5JCxDRERERETEfjgUYZkQr1dJWt+93CdAHqoOy8ZZwjJERERERETsh0MZlsnytPNmJK+ClMuyOm/h1PhkXbeL2ym2jSxr36qsAwwCwrL8EpYhIiIiIiJiPxyKsCz+GKbUSZki6xqQaSBmwy9vWdprH1ou+0gL2gAGAWFZfgnLEBERERERsR8ONCyzWmyIJa9xvTwJpqGXttV2Vn1iTJYlKLMBnCDlhGUwSAjL8ktYhoiIiIiIiP1wKJ4si7F1GoJZssIyDymXsCz+uKXdD8AgICzLL2EZIiIiIiIi9sOhD8sEWY8/hqnYtrIcPz0maBsJy+KPd6aNAaAfxGHZTbOfSyQsa1fOiZ4fRERERERExF45EmGZLEuZauvsetzOfgxT28gTZvr9aFJv2wH0mzgs80Ii7K1v/PJ3YdPLryevXv2oOC7Hgd07aXOAOd/uOJ+TUT22cb4miIiI4+zAwrKqkLALYFSJw7LXam9K7K+v125gNtRuZOTVqx8Vx+U4sHsnbQ4w59sd53Myqsc2ztcEERFxnB3psEw+mqlPiQGMIoRlgze5kdn52sjfyIzLcWD3TtocYM63O87nZFSPbZyvCSIi4jg7kmGZ/bil/UgmwKjRFpa9U3tjYl+VR2zXb6/dyMgPRad+VByX48DunbQ5wJxvd5zPyage2zhfE0ScbOU+BrEXevNt487Xwz0LNoVrH1jpblNU6eeuJzaGtVsPuvsTR/rJMoBRR95rhGWDVW5g1m0/OPI3MuNyHNi9kzYHmPPtjvM5GdVjG+drgoiTLZkBpCFzY8fB33albBvPNQnKbnxwTdi8992w09mmG6Wfl/b9Msx8ZH1Y/dKBtn2KhGUAAyQOyw7W3pTYX+UR27XbDiavXv2oOC7Hgd07aXOAOd/uOJ+TUT22cb4miDjZkhlAGjI3tr/6m66UbeO5dveCTWHz3nfc9mXduv+X4eaH17TtUyQsAxgghGWDV25g1sjjtyN+IzMux4HdO2lzgDnf7jifk1E9tnG+Jog42ZIZQBoyN7Yd+E1XemGZfGTSa1uV3j5FwjKAASLvNRuWvVp7U2J/PVi7gVn10qvJq1c/Ko7LcWD3TtocYM63O87nZFSPbZyvCSJOtmQGkIbMjW0Hft2Vsq0317y2VentUyQsAxgg8l5rCcverr0xsa/KvxokNzLyQ9GpHxXH5TiweydtDjDn2x3nczKqxzbO1wQRJ1syA0hD5sbWA7/uyiS4cuaa17YqvX2KhGUAA0Tea4Rlg1W+vHHFi/UvdfTqR8VxOQ7s3kmbA8z5dsf5nIzqsY3zNUHEyZbMANKQufHS/l91pRdcZfW3Zuvr4fmN+1NdvulVdzurt0+RsAxggMh7jbBssMoNzPIto38jMy7Hgd3bizlw8RULwkf/7opSnnXuXLfvsg5yzr/y+MKw++xzw44P/XXY/t73hh1/+Zdh10nfCHvvmRVePfCWu00/rPKcDNu1H+T1LuOojhsRsZNkBpCGzI0XX/lVV3rBVVp/V1z7TDjsyOvDUcfdnOrhx9wYvvKNu8LmPe+6fYjePsWBhWXvOeTIsGXb7sZaCIcec0aYdt6MZDmuy0PWNt30B9AP5L1mw7IDtTcl9lf5aMzyzfuTV69+VOz3cfybY29u02uH/bMXc0ACD6+8iFX04dnvOa/uufO+JCBL8+WvfM3drh9WeU6G7doP6nqXdVTHjYjYybTMYOu2neHmW+5tCpNHWriVR9nWm2teWwnK1u98y62zfunrd4THn9vh1onePsXCYdknjj4jcfa8pxslIVnW8rzYAEtCsukzZyfLAmEZTAryXut1WNarG9V++uLLb4YLfvpouP/BdW59GeUGZlnJG5kyT2DIkxden0Wt4jiKSFg2fPZiDsgc9cqLWEUfnv2e8+rOwz6XhGJ7fn57OHDgrXr5G78O+55ZGnYc+tGk7pUNL7Vt1w+rPCfDdu0Hdb3LOqrjRkTspJcZvPbaGy0BmaxLeAaThcyNLft+2ZVecJXW38nfvj/c8+B6t059etWeJFRbt+NNt1709ikWDstuvPXBlsDMBmVSlxcNsCQk0yfKFMIymBTkvWbDsv1v/a5y5WbFKx8Vt+x8M5zwxVvC9GufDp876oZwy13L3XbdKo/YLn3hleTVq89jfI6LnPOqrk8Vx1FELyzz2o2Tcq2q1NtHGXsxB+w44/F30uujSvs951V9gsyr23n0MUndvpUb3fpeW+U5ia9hEb0+yjqo613WUR03ImInvcxAgrFZsx9prHVmwcLnGkswTsjc2Lzv3Ranz3y4mRupUha3k229uRa3Exev3xeOPO7mMG/RS279yhcPhuNOnBnunL3WrVe9fYqFwzLhjvsebztQKSuCBFgSlMnHL2NsuCVBmqyLNlSTei2Xfuw2eetERZZ1XwD9Qt5rhGXpalCmAdmqTQfCkcfeFB58bFNb226VG5jnN+0vdSMTn+Mi57yq61PFcRRxUsMyr7wbe/G+7MUcqGKcvThWsV9zftdZ5zYDsm59+RvT3L6rtspzMmzXvuyxnfLt+5LxFFW28/rLa5XXBBFxmEzLDOTJshUr1zXWptCnzlQJ1aQsrpNt5VXrYPRIwq2977Z58TUPNPMjWfbaeMFVWn/iE8/tCMcc//OwaOWeZtkzq/cmrzPvXpG4bNOrzTpPb59iV2GZYJ8wK/JEmaJh1byF7fuScg23LLbcbhsHYp3qdFnaSL0g5boM0C/kvUZY5qvBWPwkmZY/t2JXS3m3yg3Mko3l/tU/PsdFznlV16eK4ygiYVk5e/G+7MUcqGKcvThWsV9zXr6DTAKvHe97X/3VhGB5lPY7jzjS7btqqzwnw3bt+3W9q3ZUx42I2MmszECCMAm87Ecw7bp+r5kGYraOsGz0kbnxwp53XC+6ZlaiVyd6wVVWf+K9D60Pn//SrWHF5lfDxpffSpavnbkkqZPXL550R9s2Vm+fYtdhmSAhWTdBmaCBlg2vlDjQknVVysX4ibS8dbYvUZ9W0zYA/UTea4Rl7UogJh+5vPqGZ9vq9GmzWbUfinFdN8oNzOKSNzJyjsvo9VnUKo6jG//2L/sTAgyDVV0rscq+1F7MATtOna959fqo0n7O+Z2f/kzY/oEPhP2v/9qtT3PH3/19fTunrhdWeU7ia1hEr4+y9vN6V+mojhsRsZOdMgN9WkxCMF0WZF0+filqXfzRTcKy0UbmxqY973SlF1zl6e/y654Ol8xYlCwv3Xgg+fjlt896IHmV9bi91dunWCosK4OGUxqGWbROwy1FQjAtLxOWeWgbgH4i7zUblr1Se1NWrdyseOXD6tI1+5Inx35y6RPhM4dfHx6ev7lZt7kRlF0yfWHLNmWUL298bsMryatXn8f4HBc551VdnyqOoxslLPPKx1F7rWQu2jpR6jtp29ptq7AXc6CKcfbiWMV+zvmd005NnhLbu2K9W++596klyTYvn3G2W98Lqzwnw3bt+3m9q3RUx42I2Mk8mYE8JSahmIZl8qrfU0ZYNr4k4dbud7pStvXmmtfWOnfBi+F7F8xrrl9+7dPh7/9xevJq23l6+xQHHpYJ8vFHG3BpnQRpWq5Bl24jy1IvFP0YpvdxS9sGoF/Ie42wbMpFS3cmAdncxzYl64tX7QlHf/7mJBzbuO31JCi77ueL27Yro9zAPLt+X6kbmfgcFznnVV2fKo6jG72wzPuIZtxmFNVrtW3fO8mTj/fOXdfWJq+9eF/2Yg5UMc5eHKvYzzm/65IrkuBrzwMPufWeu2++Ldlm9w0z3fpeWOU5GbZr38/rXaWjOm5ExE56mYGGX4qEYPr9ZRKAaSim4Zkiy7KtwMcwRx+ZGxt3v92VXnCVp785C7aE713wcLJ8Te1+UZ4oe2LJzuRV1uP2Vm+f4lCEZYJ8HFKDMVsnZbIur6KW249nxoFYVp28ap3IxzBhkMh7rSUse7P2xuxCuSHpVq+/Qbjo+Z1JACGvtnzb3nfCqd/9Rfi7f5webrlzeUtdFR6o/SB8Rm5k5IeiU5/H+DwWOa9VXYMqjqMbk7AsKnPDsqjNKGqv1ZrNB+v/S+s1T4c9r/2mpV0ee/He68UcsOOUZU/b3jNPm27s55zfc9+cJPjadfkMt95z1znn1QO2Bc+69b2wynNir5u93lbb3jNPm7yWPbZpp3X3Bf+ynddfXqu8JoiIw2RaZiBBl6pPkQn6PWaqDcMkKNNywrLRR+bGhl1vdWUSXDlzzWtrfXr1nvDFr90eHnlma/K6ZMMrSbm8nnbWA2H1ttfbtlG9fYoDC8sAoD0s21d7U1at/LHvlQ+T8iSZBGVPPb+zrW7lxvr3l828c3lbXRXK59GfXrc3efXq8xif4yLnvKrrU8VxdKOEZbFeWOZtO2rG12rr3nfCpz57bbjmxuea9Z3Ube1yVfZiDlQxzl4cq9jPOb936dr6RypP/a5b3+brvwk7jzw67PiHfwz7dh7w2/TAKs/JsF37fl7vKh3VcSMidrJIZmBDs07ET53B6JEn3EpTtvXmmtc29rZfrA5X/3yxW5elt0+RsAxggMh7bdLDMgnKJHBIC8qOOOamcO+cdW11VSkfjVm0dm/y6tXnMT7HRc55VdeniuOoykkIy16s/WKVJ07OPf/hsH3/L1va5bEX78tezIFuxhlv04tjFfs65/e/HXZ8/JNhx+cO9+sj9y5fn4Rr8l1nXn2vrPKcDNu17+v1rtBRHTciYid7lRlIsBZ/hxmMFjI31r/8Vld6wVWZ/vLo7VMkLAMYIPJeaw3Lflu59ZsVv27QSlB2xDE3hpUb97fVPbP85aRO2sR1VSo3ME+t2d24kfHbdDI+x0XOeVXXp4rjqEo/LPPbjpJ6rbbufTscd8LPG0+U+W072Yv3ZS/mQDfjjLfpxbGK/Z7zO78xLQnA9q7d4tZbd989q/6xzSuudut7ZZXnZNiufb+vd1WO6rgRETtZZWYQf0QTRhuZG+t2vtmV9eCqfa55bavS26dIWAYwQOS9ZsOyvbU3ZdXKzYpXPmh3vfbr8IlPXR1WbNzfVvfU8zvCJz97bZjz2Ka2uqrdX7uBWVi7kZFXrz6P8Tkucs6ruj5VHEfVykcyvfJR1V6r51bubqkTpb6Ttq3dtgp7MQe6GWe8TS+OVez3nH/5Z5cmAdjuhx536627Lryo3vbhJ9z6XlnlORm2a9/v612VozpuRMROkhlAGjI31u58sytlW2+ueW2r0tunSFgGMEDkvdYSlr1Re2NWbHKz4pQPg97YJCiT7yh7/OmtbXW9UL5H5snVu5JXrz6P8XEUOedVXZ8qjqNqk7DMKR9Vq3wvVdmX2os5UGScl131VNJelXUp78Wxiv2e87vu+kX9abEZ17v11p1f/ErY8ZG/CXs27XDre2WV52TYrn3ZYyvzBf9ef3mt8pogIg6TZAaQRj3ceqMrk+AqmmtXz1qRPAHmta9Cb5/iiIZl/xJ++dq28Nq2Z8P+TfMQR8aDW58O7xzYksxhQd5rhGVT63Me3RQ+c/j1SWBmy3up3MAsWFXuRiY+jiLnvKrrU8VxVK0Xlnkf0YzbDKtVvpeq7EvtxRwoMs5dB3+d/M+1so38L0TbXnk3Ke/FsYr9nvO7n1uZhGUvn3G2W69KQLbjwx8JO770Vbe+l1Z5Tobt2vf7elflqI4bEbGTw58ZwKCQubFmxxtd6QVXdzy+IazZ9rrbvqzyZNkNc1e37VMcybDsl69tD69tmx9+89qS2spKxJHxt68/H17fviC8/cqmZC7HYdme2puyauVmxSsfBo/+/M3htDMfCOf/5NFw2Yynko9eLnx+h9u2V75Su4GZv/Ll5NWrz2N8jouc86quTxXHUbUSlsVlXlgWtxlW5VpVqbePMvZiDhQd50t73k6exFm/9fVmWS+OVez3nN+9+7Ww/e//Iew4+li3Xt318Px6qPaTS9z6XlrlORm2a9/v612VozpuRMROEpZBGjI3Vm9/vStl23iuLd18INzyyLpa/Rtt7csoYdld8zeFRWv3tO1THMmw7OC2Z8JvDi4J4d0ViCOnzF2Zw0I/wrJhdtULryYft7x7ztpw/S1LwvIN+912vbSKG5nvnj07uSnsRnkKw+uzqMN4QyZhWewoh2XDbi/mgMxRr7yIVfThOYg5r1/yv2vuY279nv3vhJe/f349LLv9Xr9ND63ynAzbtR/E9a7CUR03ImIn5T4GsRd68+25ja+Emx5c47bvVnmiLC0oE0cyLNv/wqNuCIE4KiZzuIa81yY5LBsG5QbmiRWjfyMzKsdBWNY7ezEHhj0s6/ec3/XIk0kQ1lH5vrLdr7l99NIqz8kwhmWj+LN6VMeNiIg46Y5mWLb5sRDeWY44siZzuEYclu1+/bfYZ/e9+bvweO1GRl69+lFxVI7DC8u8dljcXsyB75zV/VOTqjw96fVd1kHN+Zfv/EXYcdQxfkj2/g+End/6dti1eJW7ba+t8pwM27Uf1PUu66iOGxERcdIdi7DsPYccGbZseLS5fuhRJ4dp55zv1uUxa5tu+kOMJSwbHuUG5rHlo38jMy7Hgd07aXOAOd/uOJ+TUT22cb4miDjZyn0MYi+M59qgHN2w7O3lTZMAa/2jyfK0s88P06+f4dblNWubbvpDjCUsGx6TG5llO0f+RmZcjgO7d9LmAHO+3XE+J6N6bON8TRBxsh32zAAGh8yNHQd/25WEZSXZv/nxEN6qjbFhEmCtezRMv25GmHb2D906W9bJrG266Q8xNpnDNeKwbFftTYn9VW5gHmncyHj1o+K4HAd276TNAeZ8u+N8Tkb12Mb5miDiZEtYBmnI3Nj+6m+6Urb15tsgHM2wbEt7WCZBmXz80pZrnYZbEqTJumhDNanXcunHbpO3TtT+EDuZzOEahGWDt34js2Pkb2TG5TiweydtDjDn2x3nczKqxzbO1wQRJ1vCMkhD5sa2A7/pSsKykuzf8kQIb9bG2FDDqnkP39VSrnVb1j6aWW63bQZiOet0WdpIvSwjdjKZwzXawrLXam9M7Kv73vhdmPd87Uam9urVj4rjchzYvZM2B5jz7Y7zORnVYxvna4KIky1hGaRRD8t+3ZVJWObMt0E4mmHZi0+E8NaKpkmgNe/ueni17rG2Oi3TNqqUi/Un0tq36VRn+xLl+9JsW8Q0kzlcIw7LXq69KbG/7q3dwDz8/Pbk1asfFcflOLB7J20OMOfbHedzMqrHNs7XBBEnW8IySEPmxtYDv+5K2dabb4NwRMOy+eFf3l7dVIKqzevnh3mP3Jsse3WirTv0qGnNcllO2yarLt4XYl5lDguEZYNXbmAeWjL6NzLjchzYvZM2B5jz7Y7zORnVYxvna4KIky1hGaQhc+Ol/b/qSsKykiRh2TvrmiYB1oYnk+Xp118XDj3qlLa6eY/c3yyXdbuNLEu9bl+kTspkGbGIhGXDo9zAPLh428jfyIzLcWD3TtocYM63O87nZFSPbZyvCSJOtoRlkIbMjRdf+VVXEpaVZP9L88O/vLuxaT3AWtRcP/mcC+vBWFQnZbIur6KWz3t0VlKehF833NCyTVadvGqdKPuVcsROyhwW4rBsZ+1Nif11T+0GZm7tRkZevfpRcVyOA7t30uYAc77dcT4no3ps43xNEHGyTcsMbr7l3vDaa2801kKYNfuRsGDhc8lyXJeHrG266Q96T9mwzJtvg3BEw7IF4V/e3Yw4ssocFgjLBu+eN38X5jxXu5GpvXr1o+K4HAd276TNAeZ8u+N8Tkb12Mb5miDiZJsnLJOQbMXKdcmyQFg2Gcjc2LLvl11JWFaS/VsXhH/+5UuII6vMYaEtLDtYe2NiX5V/7Z/z7Nb6v/o79aPiuBwHdu+kzQHmfLvjfE5G9djG+Zog4mTbKSyTkEyfKFMIyyYDmRub973b4vSZD4dPHH1Gi1IWt0vCMme+DcKRDMsOvvx8+PUbG8M//2o74sgpc1fmsBCHZTtqb0rsr3ID80DjRsarHxXH5TiweydtDjDn2x3nczKqxzbO1wQRJ9ussEyCMvn4ZYwNtyRIk3XRhmpSr+XSj90mb50IgyMJy/a+2+bF1zzQDMpk2Wsj23rzbRCOZFj2zmtbw+u7l4TfvP1S+Odfv4w4Mv723W3hjb3LwlsHNiVzmbBs8CY3Ms+8NPI3MuNyHNi9kzYHmPPtjvM5GdVjG+drgoiTbVZYJm7dtrNRMoWUa7hlseV22zgQ61Sny9JG6mEwyNx4Yc87rhddMyvRqxMJy0ryL//yz+Htg1vCqzueCfu3LUQcGQ9sXxTeevWF2hz+p2QuFw3Lvnjm9Jb/VELV8qdW7Uja2eVbHlySrH/oyNNb+oqV9na7osq2Vtmv1y5L3X/ZsRRRbmBmPZ1+I9OvcZS16HHIfJB549XlMWubPP1pGzFP+7ztiij9WbuZs7F532+9MM8c8MpH1U7Hq9dC1XJZrnIeDZO9mgP2nA3q/HU6tk7Kzzv9mWft9bGVHTci4rCaFZZJWGXDKyUOtGRdlXIxfiItb53tS4w/Agr9Q+bGpj3vdCVhGQAkFA3LrFl/1Md//FcRAnTS7lNvUuM2ncw6pl6Z3Mg882LqjcwgxmTNu/8ixyE3jOdf/Qu3Lq9Z2+Tpr5t9Vq0dg7zKetymqNJHt++3suckzxzwyvtl2eOLzTre+HrKul6XPOOoeqxp9vOciPacFNGOs+ox5+2v07FlKf1LgC3G++rlsYllxo2IOMxmhWUSXmkYZtE6DbcUCcG0vExYBsNBEpbtfqcrCcsAICEOy7a/+pvcyh/1C1du71iX1U6V8MQrL2K8nzz7je1mm7Lufv234f5FLyavXv0gxmTNu/+8xyEhWXy9q75WefrrZp9VG4+hijHl6SPt/VZ2/3nmgFfeL6s4v9as471l7uLwoSNObysX84yj6rGm2c9zInY7B+w4qx5z3v46HVuW8nPPaut6eWximXEjIg6zncIyQT4KaQMurZMgTcs16NJtZFnqhaIfw+Sjl8OBzI2Nu9/uStnWm2+DkLAMYIBUGZZ5f/DLq6o3CHG53FDG22mfRbTbxjeq8T69chmfvHpjyWpn60TtW5YllLBlnvUbmS2pNzKyve7Lqn3rfqRMjlmOXdvY8xCP07aTdbsPXbft0wIWNc9xyLnzAgTdnyx7xyXa8WRdgyLXR9vEy9qHLnvbZPWrx6BlaUob7U+uR9rxivZ62Tp7vFqm5V4/8fvNnm9VxxFvq/tPM88csMtyTNq3LGedd9vW1sVjtOdJ1rs5Pm1jyzzzznmvXK+BNwa7rmO1Snk350OuvS237fp5Tuxy2jW349A2es5kOe/xa7m203LdRtdF71xbOx1blvq+E+OfgbJve2y6nHYsRS0zbkTEYTZPWCbIxyE1GLN1Uibr8ipquf14ZhyIZdXJq9aJfAxzcMjc2LDrra4kLAOAhF6HZWnt9AZOb3jS2hZRtlXjmx7br+zT3ijpWLwbMrucp13cty5nmdzIPJV9c6n9p6ltZP/22GVZxy1tdFna2n7jfWTVpZnnOEQdQ1zn7SMeh27rXYOsOl2WNvb6eG1kWc+htJd1Wc7aJu43z3UXpa01rtNjkv3Iut13nuON2+rx2LZ2rN62um6PMc08c8Aua2ig49L+dd1rK+ORdXsMenxeXTfHF2+XZqfjFTWg0jGKdr9ZY7BjtUpd0fMhZV4YFO/HrvfinEg/djnrvabHIfuVdXuM8dyx26WNP8/7Oss819tT+tbxirJs92f3n7Zsj6Wo3Y4bEXHYJTOANAjLAKA0/Q7L5FXWZVn++JebF1GW47ZF1W3tPkRdt8o+pdzewNg+7HJWO1H7VPWGTNvY7TzlBua+DjeXXj96w6dqG1nWNjpuHaeWi1nnPe7P239snuPQMcf92TLvuMSsa1D2+qQtp9WJsmwtet1F21b7tP3btnq9pC7PvJVl249sK33kve66rVWPMc08c8Aup+07Xo/r7Lmwfdo6Wc7qU7e16vHZdll2Ol5V9xWPq9sxxHV5zofWxYGL7UvbWKs+J9KPXbZ96rqYd47bdVGWrWnjt+txXZp5r3esnHN73mVZxyV6YxFl2Wq3KWK340ZEHHbJDCANmRvrX36rKwnLKkb+iJl23ozGWivTZ85O6rds290oGW5GaaxQnkGFZfKqf/jLa9rNbRHttvbmRPdp22p5nhuyrHai17dt49VZ5Qbm3oWbU29kvH7i/cr4tI0ee6dzkHXe7bq3f8+8xyH7jMeidaKt0+MSs65B2euTtpxWJ8qytrHG22cZt5XjyBN6pB1vvKz9yGue95u3rdblMc8csMtp+47X47o850mWs/r0tlXj7dLsdLxWeS/qNdD+ux1DXJf3fIgyDmnjnaNux2OtYg6Ieee4XRdlWcutadt4dWkWud5W6d/T1sdjEW2bMnY7bkTEYZewDNKQubFu55tdSVhWMfIHzaHHnOGGTFInjlNYNkrHA9nEYdm2A7/JrcyDJ1dsd9fTlnVdboRkWcpl3dbZtkX09mPH8MMZv2jW2TYz5yxOlqU+3sYuZ7VL69uOJ83dr/023PNk7Uam9urVe/3IWOJzqG3kVepEu5200WPQbbRO2mqdvNr+vP17FjkOOV86fluXdVyyrGP0rkFWXafrk7bcqV2Z6y7atvIa96/HpHV2u6zj1WVdj8+prYvbxuveMaaZZw7Y5U771nU7DimL+8k6T532UeYaZh2vjMn2IddA92X772YMdhtpI+u2Lu18qLKtNxZdLzoea1VzQJaLzHFbl2f8Wf2l2enYPOUY7M86Vcr0+NLGIsvesRS1m3EjIo6ChGWQhsyNtTvf7ErZ1ptvg3CsniyTp8gs8xYuS8qlnrAMhpH2sOzXuZV58OSKbe562rIoNwlSpqb1UdR42x/OuL9xk/LrpNzu8wtnXpmUz5zzXLNM2sur9mGXs9ql9W3bZLn7td+Euxe8kLx69bZvUfYv5Xoe5VW0+5Ix6DjUeJy2vT0+2c7W63rcX2ye44jHqNfH1qUdV9Y1KHt90paz6uRV1lWv307a7ePt4v5tXd55K+r5VG1dvB5fa6mz22p5mnnmgF3OGotd133LqyjHr+3iMWb1mff44u3SzHO8cd9arv2njSEeq1XLdZs858POGVHbx/tJG48sa19ZVjUHisxxuy6vup2YNn67Hp+DNDsdm6f0qT+zrVLmjc0upx1LUbsZNyLiKEhYBmnUw7I3urIelvlzrt+OTVgm4ZG8WvRpM60XNDwT7Uc3pa2WS8iWVqb9qUpcru0FXdc6G+rZ7eKPjHpj1XVbljYmbWPLYLgoE5Z1Y6c/9mWueOXDpN7AeHXduPv12o3M/NqNTO3Vq+9GOc/2Brof9uI4hs1hnJ9Z87Hbm+tu7dUckOPTAGGYHNScH9bzIQ7qnPTDUT22cb4miDjZEpZBGjI31ux4oysJyypG/nCVwEiCIRtqSdglaH2Mlss2GjwpXplg+5I2GnxJud23bSfLOhavTrfL+n61eBvbxq7HY7LBHAwf/Q7LspRwR580GmYlgKhynHIDc9f8TZXdyMhN9CDOY9XHMWwO6/ysej6WsVdzQH6XDGtYNog5P6znQxzUOemHo3ps43xNEHGyJSyDNGRurN7+elcSllWMhkWihlI2OIvDJFlXdTtZtsFSVplV9qPllrT9C1onZTpexbb1xirYZXm1bUQN+Ww7GE6GISyTmz6dO8N6AyhhhI5R9Np0q9zA3FnRjYyOcxDnscrjGCaHcX72cj6WsVdzYJjOvXVQc35Yz4c4qHPSD0f12Mb5miDiZCv3MYi90Jtvg3CswjJBwicJmWwIpfUaLCnSxoZJ+mSXhlyCLYu3V7zyrLBMxyhlaWFZ3Kcdq+0vbmeJ9wvDh7zXbFi2df+vsc/ueu034Y4nNiavXv2oOC7Hgd07aXOAOd/uOJ+TUT22cb4miIiI4+zYhWUSQsm6fSJM66VOwykNmeIwSbaz2wq2LO5bkXINx7RvxW7j1el20kbWO43VLguynjYm2w6Gj/aw7FdtynVcsHxr7vIss7bppr9xcNdrv27cyMgPRb/NKDguxzFIR/29VtUc+Hnjy90/dMR33fo82j7kWO0xV3X83R5vPB5r0fIss7ap6hzElp0DMi6rfBG+124Q5j22vPNX2vTiGsSWvSaIiIg4GMcuLBPSntYSpE7W5VWUcg3YVMErE6S9LdePPMbldjzaTus0HBPsfmxYJnhjFbSvtH1ruSzbccDwQVg2eOVf+29/fEPy6tWPiuNyHIN01N9rVc0BGZ8EDl5dXrP6qOr4ezHn08bWzZiztqnqHMSWPSfxuGT9C2dc2dLGs1fHY817bDKWPPPXjrmX4y97TRAREXEwjkVYNuzIH2GEVuBBWDZ45QbmtsdG/0ZmXI5jkI76e62qOVDF+Ppx/L2Y82lj62bM/TgHsWXPSTwuWZYy28azV8djzXtsecdi2/Vy/GWvCSIiIg5GwrI+IH+EEZaBRxyWvfTKr9qU+TO/9ke8Lp94xpVt5VIm67ZelHot/8FV97dsk7dO1P7G0V0HfxNulRuZ2qtXPyqOy3EMUvsekOVBvtdkWfelZZ2sYg7YschYtcyOJe0cqFon2j70mO1yGcscb9oY4nHq8dnytOOXei2vYg50Y9k5YMelyscZfz77uWTZO3Zdt2Vp56iMeY7NjkXnXtr5leW4TseatY0em5Z1suw1QURExMFIWNYH5I8qwjLwKBKW2RsWW27bxuWyrNvEN2id6nRZ2uhNxzia3Mg8ur7yG5mzL70zOY9WKfPaVmGvjmOS1Hk/DO81KS/6vqtqDtgx6XraWOK2aeV2PW2bopY53k7jHtWft2XngB2LGp8LNe0YYrPqipj32OL92XV7frPGn7VN0etT9pogIiLiYCQsAxgg7WHZL9uUP87lZuUHV93XVj5/+UvJ8s9nP5usq1IuynbeNp3qbF9i/V/bp9qOk7sO/jrc8ojcyPzarS/jKRfc1DyHsuy1qcpeHsekKNdpWN5r2sZu18mq5kC873jdOwdap2b1kbZNUcscb9a4h2UOdGPZOaDjsmUydi1Lu/bxdnnmSFHzHpvdn7zacYjee8wu590mr2WvCSIiIg5GwjKAAVIkLItvoPSPdv3DXsv1xkYsc/Nm68ZZuYGZ+ci6nt3ISEjW66BM7PVxTIIy74flvaZtvLo0q5oD8b7tejxmPQe6rmb1Edd1a5njTRuDlA/LHOjGsnNAx6XrdnzxWO21t9tltStj3mPLGovVtutmm7yWvSaIiIg4GAnLAAZI3rBM/jiXmzf7tIOWy7/g642Y/pGvf8zLstTLsmxbpC5+smJcHZcbGW7IyqvvgWF4r9k2ea1qDsT7tutZ58Ca1UfaNkUtc7ydxj2qP2/LzgE7Ll3XcXc6dl3OalfGvMfmHUOn91g32+S17DVBRETEwUhYBjBA4rDsxX2/bDP543zZS8nyB2s3IKJXLutar+U3PzD1UZjz9AYtR528ap0oN45SPo6+XLuB+fm8tcmrVz8qjstxDFL7Hhj0e822yWtVcyDed7yedg6sWX3Edd1a5njTxmDL9fi8clmPj38Yft6WnQN2HKKOUU07dhmzlOvY09qVMe+xxeNOO7+2XTz+PNvktew1QURExMFIWAYwQPKEZdhb5Qbm5odH/0ZmXI4Du3fS5gBzvt1xPiejemzjfE0QERHHWcIygAHSHpa9i3325YO/qt3IrElevfpRcVyOA7t30uYAc77dcT4no3ps43xNEBERx1nCMoABQlg2eOUG5qaHRv9GZlyOA7t30uYAc77dcT4no3ps43xNEBERx9mxCMvs90qIW7btbtTkR7bJs203/Xc7pizmLVyW9HvoMWc0SrpD+rDoeVC9/qedNyMRykNYNnjH5UaGGzKctDnAnG93nM/JqB7bOF8TRETEcXZswjINo6bPnF06QMrC7suSVi5k1XWL9CmBWVmkH0WDMjvWOBSTOjm/YtXHNInEYdmWve9in3351V+FGx+s3cjUXr36UXFcjgO7d9LmAHO+3XE+J6N6bON8TRAREcfZsQvLhF6EU0pa31n77MV48vSZ5+kv6UeRAKxTACdhpBXKQVg2eOUG5oYxuJEZl+PA7p20OcCcb3ecz8moHts4XxNERMRxduzDMlmW0EhDISmXZdWGQ7Ku28XtFNtGlrVv1QuopFw/NinakClrPLZOtpHXuL32FZfbJ79k3Z4Di5bp9p3QfkVZhnIQlg3e5EZm7uqRv5EZl+PA7p20OcCcb3ecz8moHts4XxNERMRxduzCMgmPbIgjdTacknUNpDQg0m3TlqW99qHl8VNYtn2M1OmYpE28n6zxaJ0NywS7LNi28hq3tefAInWCtLXnTfdn+4nbyLIdAxSnPSx7B/vsy6/+Mlw/R25kfunWj4rjchzYvZM2B5jz7Y7zORnVYxvna4KIiDjOjk1YZrXEYU9cL09cacikbbWdVZ8Yk2UJieLwScrTgqO4TveZNR6ps8GUYPuxy7Yf2Vb68I7LQ7ezfVjstnLM9rhlWc8LdAdh2eCVG5jr5qwa+RuZcTkO7N5JmwPM+XbH+ZyM6rGN8zVBREQcZ8fuybIYW+cFQl6o5LVTpFxCrDgksvuJietk+16EZfKq4/KOy8Pu32tny2TZE7onDss273kH++zOxo2MvHr1o+K4HAd276TNAeZ8u+N8Tkb12Mb5miAiIo6zExWWCbKuIZKU27DHtpXl+OkxQdtIGGXr7bYxti9vn1nj0TrZXtbt+Oz+ZF3DNa8f29Zi2+k+LLqtjCMO7wQN/qA7CMsG785XfxWunb0yefXqR8VxOQ7s3kmbA8z5dsf5nIzqsY3zNUFERBxnJy4s0yBJtXV2PW6nT2zZNhIUaYAk9badRcu1LxsuZY1H2ml5p7BMxqFt47p43SJ1FrtPUUO+OBxUpMw7ZsgHYdnglRuYax4Y/RuZcTkO7N5JmwPM+XbH+ZyM6rGN8zVBREQcZ8ciLKuKODgaJiTsShsfYdXo0h6WvY19Vr5H5ppZK5JXr35UHJfjwO6dtDnAnG93nM/JqB7bOF8TRETEcZawrEHaxwyHBQnEhnl80B1xWPbC7rexz+488Mtwde1GRl69+lFxXI4Du3fS5gBzvt1xPiejemzjfE0QERHH2YkPy/SJLTHto4qDIv5oJYwfhGWDV25gZsxaPvI3MuNyHNi9kzYHmPPtjvM5GdVjG+drgoiIOM7yZBnAACEsG7zJjcwvRv9f/cflOLB7J20OMOfbHedzMqrHNs7XBBERcZwlLAMYIIRlg1duYK4agxuZcTkO7N5JmwPM+XbH+ZyM6rGN8zVBREQcZwnLAAZIe1j2FvbZnQfeDdPvl4/IvOvWj4rjchzYvZM2B5jz7Y7zORnVYxvna4KIiDjOEpYBDJA4LNu06y3sszsaNzLy6tWPiuNyHNi9kzYHmPPtjvM5GdVjG+drgoiIOM4SlgEMEMKywSv/2i/XQV69+lFxXI4Du3fS5gBzvt1xPiejemzjfE0QERHHWcIygAEi7zUblv305scQERERERERcYASlgEMkDgsW7r51bBl99th3xu/Dq+/+ztEbPjDG55wy3E85Pr6cl4Q0+X9gZgu7w9fzku6nJu6r7zxm/DS3neS+/KuwrJPHH1GmD3v6cZad7znkCNbnD5zdqPGR9ps2ba7sdZb5i1cluzv0GPOaJSUo59jh9EiDss27347vPbO7xAxUn6Be+U4HnJ9fTkviOny/kBMl/eHL+clXc5Nq1v3vdN9WCbecd/jjZLiFA2Q0tr3IoiSPiUwqwrCMkgjDsv2vv6bcLD25kTEVuUXuFeO4yHX15fzgpgu7w/EdHl/+HJe0uXctCr35V2FZRKSlQ3Mhj0sq7JPwjJIIw7LXq29MRGxXfkF7pXjeMj19eW8IKbL+wMxXd4fvpyXdDk37XYVlgllA7O0AGnaeTOSOlGWFdte67SdbWvbCXZd28mr4O1L10X9aKhsb8vtU2eybvuUj27G7WRZx+DtU7D7kP3abWB8aQvL3q69MRGxzeQXuFOO4yHX15fzgpgu7w/EdHl/+HJe0uXctDvQsMzqfezRBka6LGFUHFbZUClrXZbTvhstbhf3ofuU8rQ+pY0NwJS4PyXuR/dBWDY5EJYh5pNf4OMt19eX84KYLu8PxHR5f/hyXtLl3LTbVVhWNigT0sIgCYykTrVhkgRlcdgV95O1Htdl7UuX5VXWLRKIabDltc0ao7dPMf7PBOw2ML7EYdmBt37XpsyF59ftaK5/5KjTw1fPvsqty2PWNt30h9gP5Re4Vy5zVt8Pcfk4z2U5tnE6xrTrO2i9c5z33FdxjbLmvfWn181y2/XLsseJ2I1Ffy+I8l7pZr72Yxtpm7VNN2PAyTXv74975i1pqcszx/K2G0bTzoucB3tetLzsser2Yp6+8rbrhcP6t9gg7SosKxuUCTIJ4jBI1qVckQBJ20i5rMdPbsX9ZK3bZXmVdSXeV1o7IS0sU/TJsLhN3JfuUyQsm0zisGx/7U0ZK3NhSe0Hpix/pfbH309qf+h5dXnN2qab/hD7ofwC98plzn74qNPD3bU/cuJy5vLomHZ9B+2g51HWvC87rjx95N1PkfEM+pzi+Njp94I3z6SumznYr22yrLo/HG/z/P6QV1n36rLs1Vzsxxz3zkt8HmRd/67MM6asNv04pqoc1r/FBmnXYdmNtz7YWOsOmThxGCThkoZGGixpG12WoMo+uRX3I9trSKVPccV9CHn2pci69qltlbitImPUcWqbTvvUfWjY5vUL40Uclr1Se1PGylxYXPshe+F1s5KwzKuzZZ3M2qab/hD7ofwC98plzt5V+4NGbozicuby6Jh2fQftoOdR1rwvO648feTdT5HxDPqc4viY9f6Qv5fk7yZbLr8rpLybOdivbbLkvYNFzPv7w67nnWO9mov9mOPeefH+jlTzjCmrTT+OqSqH9W+xQdpVWFYFMnG8MEjCJKmTV9GGSbqsdYKEZ1KnT5xpQKZldju7LOTZlyDLUqbaOrtu9y0qtk3aPu22hGWTQ1tY9mbtjRkpc+HCa2fVf4g7dYvX1n4A15b1D0AxCdUabaRey6Ufu03eOlH7QxyEyS9wp1znbHJjVJvDcXm87NXd9fDUo/eyrO8FMe4zb9u0948s63tV1uV9rW2kvyLbyqseR9o2o2La9R209hynlcty1pzpdI1k2V5Xa6d5H5drP9qnlsfzTJfjdlavTdYx2POh7bvZL2JeO70/5NWWy3zUcp2vaXPaluv7W7eRuat1dh7rurzqup33eX9HeGOLx5C1vR0DTq55fn/I/IzncNoc079R4nayrH3knZdeO7tux1S1WefFvkdtedo50XrVG7eU23Nll/V9rcveNt4+tY09p1U4rH+LDdKBhWWQjoRkMvFh/InDsn1v/rZN/eF418OL3brFa7dnltttL7z2F4XqdFnaSL0sIw5C+QXulafN2bRlr05uoGRZ5rms61zXdbtdkba6D/v+ibf5cu0PHd1GzbNt3C5tm1Ex7foOWnte08plWa9j1jywy1nX1Zo1763Sn9dG9id1neZZmnEbux4fg5TL+0PHUma/iHns9HtB5p/OR52ftj5ejue0bitlafM27su+l2Vd9ylt4rZp+7Vt0saQtb0dA06ueX9/xHXe/JOyuE6W7c/8ePuseZnVTst7ZdbfG3I8Moa0Y+pm3Gnby3Kv/nbo1mH9W2yQEpYNIfJEnDx1BuNPHJbtrb0pY+WH4Z2NH6LP1X5YxnVapm1UKRflB7+3Tac625coP9BtW8R+Kr/AvXKds7Is7wGdp7bcLhep67atKMtWb1za7se1P3a0j7zb2vWsbUbFtOs7aPUcZ5XHbbw6UZatadfVmmfeW9N+D8iynWei7UPbqHnaiPYY5PeJN5ez9otYxk7vD1H/zpG5Ku+PuF6WrdLObhf3Kcve+yxu463rGKTMbi/GPw/Ebv5G0zZ2O5xM8/z+0Lmk67qs5Xa7+D2U9jPf6s3LvO16Zae/N3R8eX9e2Da2H9XWpS2n1YmybO3luRrWv8UGKWHZkKAfz1RhMmgLy96ovTEj9Yeh/nHm1ekPUy3/8JGnN8tlOW2brLp4X4iDNPkF7pTrnNV1mdP6XtHyuE3eum7birKs5dZ4G1H+2JRyexNl69V4W13P2mZUTLu+gzY+51552nWxy6IsaxtrvL0177wX433o7wFdt/NM1rP2q9o2cf9WKZf9ffms2h/xUV03+0XMY573h/5OsH/vaH3anJZy215M28a+z+x+vXUdS9yH1e4n7xi8Nl4dTpZF/26ydd4ck5/vtp1sZ3/m552Xedv1yjx/b8jvLT02HVO347Z1actpdaIsaxtrvH0VDuvfYoOUsAxggMRh2Z7amzJWfhg+W/thKMvyw1t+OcV1dzT+EJQyWbfbyLLU6/ZF6qRMlhEHrfwC98rtnBV1/ttyeW/oPJfXeJ7b7bPWi7b13j/xNqq01fZ5t82zv1Ex7foO2rTrFZ/7rOvS6RrF21vzznsx6/eAGs+ztP2qcRtZzzoGubnw6ovuFzGPed4f+jPfzktbH9fZNt7fR1nvM7us69q3tvXqrHF/3hi0rtP2ONnmeX/ovLTzyi7r/NN2smzbxT/zpTzPvMzbrhd650WO0+5X3uM6PjumbsYdb+8td2rXaZ/yKutZy3kc1r/FBilhGcAAicOy3bU3Zaz8kHum9sNO179U+8X017Uf4nGdlMm6vIpaLr8ApFz8Ue2Hrd0mq05etU6U/Uo54iCUX+BeuZ2zatY8l3ls6+Lts9aLtJVXWVf1/WPb2HGJ2k+ebeP1tG1GxbTrO2jtORVlbmm5nnu7nFWXdo1sm9gi8170fg+kzTN9L2TNlbhNnmPQfZfZL2Ie874/ZD6m1afN6ay/j6Q/Wde5ruW2ja7rfBelT61L268sax9ZY8izPU62We8Pq50vdj2eY2nt9H3gbZM2L9Pa6ftF13thnvNi9y/rOvZuxm23T1vOqpNXWVd1H16brOU8DuvfYoOUsAxggLSFZa/X3piI2GbyC9wpx/FwXK9v8keqU55X5j1iuuP4/ij7MwNR5feH7yicl0H9HGDOtEtYBjBA4rBsV+1NiYjtyi9wrxzHw3G8vrc/tDj513avLq/Me8R0x+39UcXPDESV3x++w35eBvlzgDnTLmEZwACJw7KXX/stIjrKL3CvHMfDcbq+i1ZPfWRClr02eWXeI6Y7Lu+PKn9mIKr8/vAd1vMyDD8HmDPtEpYBDBDCMsR88gt8vOX6+nJeENPl/YGYLu8PX85LupybdgnLAAZIHJbtrL0pEbFd+QXuleN4yPX15bwgpsv7AzFd3h++nJd0OTftDiws08cM1XkLCehg8ojDsh0Hf4uIjvIL3CvH8ZDr68t5QUyX9wdiurw/fDkv6XJu2i0cln3i6DMSZ897ulESkmUtz4sEZFu27U6WJSiT9WHAjgug18RhmfyQQkRERERERMTBWTgsu/HWB1sCMxuUSV1e4lBqWEIqwjLoJ3FYBgAAAAAAAACDpXBYJtxx3+PNgEyVsiLYUEqeLDv0mKmn0qadNyOpF2VZkXV9Ck2cPnN2oya7Tvaj5dpOkXW7P1X3G2+raBtbBlAUwjIAAAAAAACA4aKrsEywT5gVeaJMsQGUDcRipF5DNVnWUE1DrLx1GpB5dXHopnWCXZc+tG28HUA3EJYBAAAAAAAADBddh2WChGTdBGWChlAaXlnsE2LaTrDLgoRsGoKl1Xn9Z21n13VbqwZ7th1AtxCWAQAAAADAJCH3QN047njHnEfoDaXCsjLYsEme0NKntDSgUuRpMW0XB1RSlxZ6aV3cn1A0LPOItwPoBnmvEZYBAAAAAMCkIPdA3v8+mOUkhEKcl+FiKMIyQdclxMr6OGVaqNapTsMxr077F7x17+OWcTuAbpD3Wt6w7NrFV4SP3/ThNn/0xPcaLQAmF94fMIkw7wHS4f0BMLxoKLTo5pPDqsvfl+mymV+emFCI8zJcDE1YJoGUhmTyKvXyKmo7KZOnwuRV1ABMyKqT7bVcjMMwu6596Mct4221PN4OoBvkvZY3LPP+4FMBJh3vfaECjCvefFcBJh3vfaECwGDRUEhCn99tOT1TaTNpYRnnZTgYWFjWDVkBFeEVjCLyXiMsAyiP975QAcYVb76rAJOO975QAWCw2FDoN2uPy3RSwzLvXFgJy3oPYRnAAJH3WlpYdt3MOc3/cVaI/8BbvOPplrK4PcA4w/sDJhHmPUA6vD8ARgcbCv1q6aGZTmpY5p0LK2FZ7yEsAxgg8l5LC8v0jzfvjz77qsv8sQeTBO+PyUGuXScnBT1WfWXeA0zB+wMgHzL3O9lrbCj07qL/I9N+hULeeYjtNcN4XiaZkQrLAMYNea9lhWX2B7P9A0/hjz6YVHh/wCTCvAdIh/cHwOhAKOTDeRkuCMsABoi817LCMvtq/8Czr/zRB5MI74/JQa5dJycFPVZ9Zd4DTMH7AyAfMvc72WtsKOR9xNDar1DIOw+xvWYYz8skQ1gGMEDkvdZNWCZsPfhiS9n5F83s2w9ygEHD+wMmEeY9QDq8PwBGBxsKeV9eb52kUIjzMlwQlgEMEHmvpYVlMfoHnifApOO9L1SAccWb7yrApOO9L1QAGCw2FPrdltMzndSwzDsXVsKy3kNYBjBA5L1GWAZQHu99oQKMK958VwEmHe99oQLAYNFQaNnMLyShT5arbz584sIyzstwQFgGMEDkvZY3LPvh42e5f/BNe+BLjRYAkwvvD5hEmPcA6fD+ABheNBQq4iRkFJyX4YKwDGCAyHstb1gGAAAAAAAw6sg9UDeOO94x5xF6w1iEZe855MgWt2zb3ajpD7K/QewXRh95rxGWAQAAAAAAAAwPYxOWaVA1febscOgx3f+vNoRe0E8IywAAAAAAAACGi7ELy4QygRdhGfQTwjIAAAAAAACA4WLswzJ5lXV13sKpY5Mn0Gy5bTftvBlJm3h7RdtombzqPmVZnnCTV11WbH/aJm2siizbfcH4EIdl67fuQ0RERERERMQBOnZhWfwxTKnTgEzDKHmVMg3ELLYvwa7LNhp8SbkNwWw7Wda+NYRTZFnHE4dldjlrXzA+xGHZP735FCKm+Os90xERERERETP1/ufQoo5NWGZVJHiy64KEWBJEaV0cQkmZBlbaxqohmG0n2PW0OjH+PjVbJ8vWtH3B+EBYhphf7xchIiIiIiKi1Qu/ijp2T5ZZNICyaFim6NNdWmb78rZX4n3a9bQ6sVNY5hH3B+MDYRlifr1fhIiIiIiIiFYv/CrqWIdlgtRpEJYWSElgZj/yaPuSde8jkF47Xe9Up+PRoM7W5dkXjA+EZYj59X4RIiIiIiIiWr3wq6hjH5ZJudSr2k4CK1uuyJNnsq4fgYy3L/MxTMHuNw7L5FXrRD6GOf4QliHm1/tFiIiIiIiIaPXCr6KORVg2qmg4BpMLYRlifr1fhIiIiIg4eOW+phu9vsZJ75jz6PWF+fXCr6ISlg0QeXIs/g4zmCzkvUZYhphP7xchIiIiIg5eua955513CjkJoRDnZTB64Ze6ec874cdX3B3WbT/o1quEZX1GwjH7UUuYbOS9RliGmE/vFyEiIiIiDl4NhR544IEwZ86c8OCDD4Z58+aFRx99NDz++ONhwYIFYeHChWHRokXh2WefnZhQiPMyGL3wS9y6/9fhjAtuCp84+ozwjTOuTIIzr51IWAYwQOS91iksO/ns77cErKqWb1r7gLtdVh3iKGp/Acr8/sbpJ7eUafn653/WXLbOmfWDtvaIg/a6S44Of/wH/z+3DhERcVTUUEgCoU4sWbJk4sKytPPyzJK1SXDz0ytun6jz0mu98GvN1oPhgsvvSs63KutS7rUnLAMYIPJe6xSWWeWGP28AVqQt4ihofwHK/P7bw7/YFoBJuQ3LdFnaybptizhIX1p+fvhX/+pfhS8d91eEZYiIOPJqKCRPTnVi6dKlExeWpZ0XCckktJHQbJLOS6+Ng6/Ne94OF10zqyUoU6Vc6uNtCMsABoi81wjLEPNpfwHK/JYATAKzuNwLy7x1xGFQQjPCMkREHHU1FJKPGHZi+fLlExeWeefFPlUmTNJ56bVx8HXVzx9uC8msUh9vQ1gGMEDkvVYmLLPr8irr4pXXXt7WFnHUtb8AZX5L8CUfxbxs+hlt5fGyF6whDoOEZYiIOA5qKCTfxdWJVatWTVxY5p0X+1SZMEnnpdfGwVc3EpYBDBB5r1UVlsnyQw/PTJYJy3Actb8AbRCWtax632+GOAwSliEi4jiooZB8aX0n1qxZM3FhmZyXsy+4PgnH1m7YGrZu35Msn3LWFY2zMlnnpdd64VdRCcsABoi816oIy8RDj/pGZlvEUdf+ApT5bZ8a0zDMluuyKMu6LeIwSViGiIjjoIZC8r87dmLdunUTF5bJeZGQTAIyCc1+fOmtyfLiZesbZ2Wyzkuv9cKvohKWAQwQea8RliHm0/4C1CBM1/XL/m25XZaPatqPayIOi4RliIg4DmootHDhwsadTjobN26cuLBMz4t+9FLU7ypTJum89Fov/CrqyIdl086bEabPnN1YqzNv4bKkvCzSj9xsHXrMGY2S/Mh2W7btbqwB+Mh7rYqwTJf5GCaOs/YXoMxvG5bp02O2PG4TryMOg4RliIg4DmootGjRosadTjovvPDCxIVlel70S/1F/a4yZZLOS6/1wq+ijnxY5gVjsi7lZZEbq277kW0Jy6AT8l6rKiyToEzWRcIyHEftL0CZ33HwJU+O2fK4jdTzJf84bBKWISLiOKih0LPPPhuWLFkSli5dmvzvjvKl9fJdXPIRQ3lySgKhLVu2TFxYxnnpr174VdSRD8skkJIbIku83i3ST7eBV5ltYXKQ91qRsAxxkvV+ESIiIiLi4NVQqIiTEApxXgajF34VdeTDMkE+JqlPgNknzeRVQivRPn2m6/IqaOCmCnZdP+YZt7NPncm67VPrta39qKjX1gZrdt3uU/qI28JoI++1TmGZXv9u9fpEHEW9X4SIiIiIOHjlvqYbvb7GSe+Y8+j1hfn1wq+ijkVYJiGShlESQnkfnZTQQEMmWY7DK62TbbXOlguyrn1riJXVp37XWZ628X5sW92nbBO3hdFG3mudwjJErOv9IkRERERERLR64VdRxyIsk/BIgyl51TDJPtkVB1C6LK+2jahPoXntLDaYs22FeL1IW10X4/9cIG4Low1hGWJ+vV+EiIiIiIiIVi/8KupYhGWCfhQzfppLsSGaDZzidpZO7YoEYDo+oVNbXRcJy8YbwjLE/Hq/CBEREREREa1e+FXUsQnL9COK+vFGLzjTkMkLp+zHIhWvnQZe2qeS1WentjZIk1dbL8tax8cwxw/CMsT8er8IERERERERrV74VdSxCcs0kIpDKCmTV9EGULadbqt6H8MU4na2zluXfrStBl5C3FYDMruN1ts6wrLxg7AMMb/eL0JERERERESrF34VdWzCsklAQjIJy2B8ICxDzK/3ixAREREREdHqhV9FJSwbIeSpM/1oKYwHcVgGAAAAAAAAAN3jhV9FJSwbcvSjpCqMF4RlAAAAAAAAANXhhV9FJSwDGCCEZQAAAAAAAADV4YVfRSUsAxgghGUAAAAAAAAA1eGFX0UlLAMYIIRlAAAAAAAAANXhhV9FJSwDGCCEZQAAAAAAAADV4YVfRSUsAxgghGUAAAAAAAAA1eGFX0UlLAMYIIRlAAAAAAAAANXhhV9FJSwDGCCEZQAAAAAAAADV4YVfRR2LsOw9hxzZ4ryF3Y1ftt2ybXdjDaD3EJYBAAAAAAAAVIcXfhV1bMIyDbnkVda7oWxYRtgGRSEsAwAAAAAAAKgOL/wq6tiFZUK3oRVhGfQbwjIAAAAAAACA6vDCr6KOXVgmH8Gcdt6MZFnICtLkVdbF6TNnd1UnCnbd7h8gC8IyAAAAAAAAgOrwwq+ijk1YZrXIuoZcgl2XZf1+szgQ61Sny9JG6gVbDpAHwjIAAAAAAACA6vDCr6KO3ZNl8poWbAm6Lh56zBmN0jp562TZqk+SaRuAvBCWAQAAAAAAAFSHF34VdezCMkGCLn0qLK7TdbFMWOYR7wugE4RlAAAAAAAAANXhhV9FHfsny2xwJq+2TpazPmqZVacfvbTYNgB5ICwDAAAAAAAAqA4v/Crq2IRlVhtYaUAmysclbb2tiwOxrDp51TpRP4ap/fMF/5AXwjIAAAAAAACA6vDCr6KORVjWazQcA6gawjIAAAAAAACA6vDCr6ISluVAnhSLv8MMoAoIywAAAAAAAACqwwu/ikpYloKEY/ajlgC9gLAMAAAAAAAAoDq88KuohGUAA4SwDAAAAAAAAKA6vPCrqIRlAAOEsAwAAAAAAACgOrzwq6iEZQADhLAMAAAAAAAAoDq88KuohGUAA4SwDAAAAAAAAKA6vPCrqIRlAAOEsAwAAAAAAACgOrzwq6iEZQADhLAMAAAAAAAAoDq88KuohGUAA4SwDAAAAAAAAKA6vPCrqGMRlr3nkCNb3LJtd6MmP7JNnm277T+LrD61Ls/45i1cFqadN6Ox1o7UZdVD/yEsAwAAAAAAAKgOL/wq6tiEZRoiTZ85Oxx6zBnJci9IC6w6BVlZZG1bpF857rS2Ui71WW2UMscCxSAsAwAAAAAAAKgOL/wq6tiFZUIvw560vsvsM2vbvP1Km6ynxiREtGbRy/MHrRCWAQAAAAAAAFSHF34VdezDMlmWEEleBSmXZVU+uqjIum4Xt1NsG1nWvlUNrOQJLi3Tfdi2NtiSdW+/EmrZOrscI23tscToE2WiLFuk3/g4tAx6C2EZAAAAAAAAQHV44VdRxy4sk9DIhkFSZ5+kknUNlWQbu23asrTXPrRc9pEWtEl5p6Apa7/ab5GwTOrSkG3sOdHgTJFt43OUth+oFsIyAAAAAAAAgOrwwq+ijk1YZrXY4Ede43oJtTSc0rbazqrhlyxL2GTDJUHK4/3EbWQ/2p9tr8uiDbUEr12M9BvvyyJ1tl6WbZgX95u2H6gewjIAAAAAAACA6vDCr6KO3ZNlMbZOXmXdkhWWeUi5BFrxk2N2P4qEUlIu/cd92qe7dFuxm7DM9uUh23kqsmy3j9ehdxCWAQAAAAAAAFSHF34VdaLCMkHWNRyTcllXbFtZ9p7W0jYSltl6u61F2oiyTw3CdL92X3ZZx6dhm9dOkfU4uLPY/VqkTPcT9+vtB3oDYRkAAAAAAABAdXjhV1EnLiyTZSlT00KiuJ0GUraNBE4aREm9tpMQym6rSFtZ1+20HynTZbttnrBMg7g04lBPkTLvmAR7LNBbCMsAAAAAAAAAqsMLv4o6FmFZVUhANGpoWAejCWEZAAAAAAAAQHV44VdRCcsapH1cEaCXEJYBAAAAAAAAVIcXfhV14sMy+fihPFHmfcQRoNcQlgEAAAAAAABUhxd+FZUnywAGCGEZAAAAAAAAQHV44VdRCcsABghhGQAAAAAAAEB1eOFXUQnLAAYIYRkAAAAAAABAdXjhV1EJywAGCGEZAAAAAAAAQHV44VdRCcsABghhGQAAAAAAAEB1eOFXUQnLAAYIYRkAAAAAAABAdXjhV1EJywAGCGEZAAAAAAAAQHV44VdRxyIse88hR7Y4b2H58Usf0tehx5zRKOktsq8t23Y31qZIK88ia5tu+oPeQVgGAAAAAAAAUB1e+FXUsQnLNACSV1kvi/TRbejWTSCVtk2VfQnd9Ae9g7AMAAAAAAAAoDq88KuoYxeWCVUEQnn6mHbejMZSK93sP22bKvsSuukPegdhGQAAAAAAAEB1eOFXUccuLJOnwWyIJeVSr9qnxWzd9Jmzk9e4vZTHbUX5eKbuU9Zln7Zey4R4Ww8pj/vTZS23+0g7RnscRepERZZ1X9BbCMsAAAAAAAAAqsMLv4o6NmGZ1SLrGpBpOKRhka2LgyS7LNi28hq31VBN8LbVddnWtlW0jYRwuh8h7kux5bKcdRxZdbpsxyXl3hihegjLAAAAAAAAAKrDC7+KOnZPlsmrruuyRZ6YkmBI6uIv77f9eH0Ksq30of0Itq3gbWu1T4UpUi7jiUMqKde+ZH+2HykX046jU53tS9RxaRvoPYRlAAAAAAAAANXhhV9FHbuwTNCnszQQspQJy+RVA6WiYVknpI2MJw7StK+4H2mr5VmBWFad7c+ibaD3EJYBAAAAAAAAVIcXfhV1rJ8sE2RZQ604ILJ1WR9RFGRdgyevn7htvN7pY426jYRltq2Wyzjj/es+ZDnrOLLqvHHZNtBbCMsAAAAAAAAAqsMLv4o6NmGZ1QY9spxWJyGSlntBkm0rQZW2jevidQm8pEyfEpM6u2389Jhg+5B9aTAWl8u61mt51nFk1cmr1ok6LtsGegthGQAAAAAAAEB1eOFXUcciLKsCDY48vHALoAoIywAAAAAAAACqwwu/ikpY1kACMX2aC6BfEJYBAAAAAAAAVIcXfhV1osMy/VijCtBvCMsAAAAAAAAAqsMLv4rKk2UAA4SwDAAAAAAAAKA6vPCrqIRlAAOEsAwAAAAAAACgOrzwq6iEZQADhLAMAAAAAAAAoDq88KuohGUAA4SwDAAAAAAAAKA6vPCrqIRlAAOEsAwAAAAAAACgOrzwq6iEZQADhLAMAAAAAAAAoDq88KuohGUAA4SwDAAAAAAAAKA6vPCrqGMRlr3nkCNb3LJtd1Iur3Z90HQzlmEaP1QPYRkAAAAAAABAdXjhV1HHJizTQGn6zNnh0GPOSJarIE9YlTfQIiyDGMIyAAAAAAAAgOrwwq+ijl1YJlQZMOXpK+/+uhlXlccCwwdhGQAAAAAAAEB1eOFXUcc+LNNledps3sKp45JlfQJN6qWdqu1s2bTzZiRlMV4befW2k3XpW+vkKTglHoMiy/bYYLwgLAMAAAAAAACoDi/8KurYhWXxxzC1TkIqG1zJsg3FdFlDK+0vT1iV1SbuKw7ovP3IWDRIy+obRh/CMgAAAAAAAIDq8MKvoo5NWGa12LDJ1sWhlSUO0nR7basqto0g29p2dv+2ne4n7lfUYC/eBsYLwjIAAAAAAACA6vDCr6KO3ZNlMbZOntayChpUWdLCsjRsm7g/CeW0Lu5L6mxY5pFn/zC6EJYBAAAAAAAAVIcXfhV1osIyeZWASp8qU6SNhmNxcJUnrLJtpJ/4qTWtk+W0kM7WWez2MH4QlgEAAAAAAABUhxd+FXWiwjJBgiz9iKOiwZVq20tbKYu3scRtZB+yrsGc9qdt5FXUgE6Ix6B9ybIdD4wXhGUAAAAAAAAA1eGFX0Udi7AMYFQhLAMAAAAAAACoDi/8KiphGcAAISwDAAAAAAAAqA4v/CoqYRnAACEsAwAAAAAAAKgOL/wqKmEZwAAhLAMAAAAAAACoDi/8KiphGcAAISwDAAAAAAAAqA4v/CoqYRnAACEsAwAAAAAAAKgOL/wqKmEZwAAhLAMAAAAAAACoDi/8KiphGcAAISwDAAAAAAAAqA4v/CoqYRnAACEsAwAAAAAAAKgOL/wqKmEZwAAhLAMAAAAAAACoDi/8KupYhWXTzpuR2In3HHJk2LJtd2OtM9I2a5ui/RWh7H57OTYoD2EZAAAAAAAAQHV44VdRxyYsk0Do0GPOSOx3gERYBt1CWAYAAAAAAABQHV74VdSxCcumz5zdYhaEZTAsEJYBAAAAAAAAVIcXfhV1bMIyfaJMlGWLBEby8Ux51fV5C5clr6IN12R7LRcVWdbQybaRbW2d7FvrZB9pZWn7yeo7b52o2DYwfBCWAQAAAAAAAFSHF34VdSzCMgmDbECmwZkigZENxGRd22vIpO3tsgRbul3cRkMvG1pJWfydaV6ZkLUfr2+hU11af1oOwwdhGQAAAAAAAEB1eOFXUcciLJNgSMMhQZZtQBUHRvG6tJWAScqkzqr96DaiDeYEWyfLdixZZVbZT6e+O+3XGo8bhhPCMgAAAAAAAIDq8MKvoo5FWBYHRaoiyzYwitclhLJhmYduI6aFVooEY1KmT4EJtixtP1l9d6rz+hO0DQwnhGUAAAAAAAAA1eGFX0Ud+bBMwqc4RBI0ABPiwEjW9UmvOGiydRbbhyxr3xqCxYGUlMf92LKs/aT13akurb94bDA8EJYBAAAAAAAAVIcXfhV15MMy+bihFxJJWdpHEWVd6uRV1ABKkHZaru0EWdY+pL3W29DKlotxWy0T0vaT1nenurT+bBsYPgjLAAAAAAAAAKrDC7+KOvJhWb+Q0AmgagjLAAAAAAAAAKrDC7+KSliWA3miy/uoJ0BZCMsAAAAAAAAAqsMLv4pKWJaB/WgjH2WEXkBYBgAAAAAAAFAdXvhVVMIygAFCWAYAAAAAAABQHV74VVTCMoABQlgGAAAAAAAAUB1e+FVUwjKAAUJYBgAAAAAAAFAdXvhVVMIygAFCWAYAAAAAAABQHV74VVTCMoABQlgGAAAAAAAAUB1e+FVUwjKAAUJYBgAAAAAAAFAdXvhVVMIygAFCWAYAAAAAAABQHV74VdSxCMvec8iRLW7ZtrtRkx/ZJs+23fZfhH7sA4YDwjIAAAAAAACA6vDCr6KOTVim4dL0mbPDoceckSz3grQgq8qAi7BsciAsAwAAAAAAAKgOL/wq6tiFZUIvwybCMqgSwjIAAAAAAACA6vDCr6KOfVgmy9POm5G8ClIuy+q8hVPHKuu6XdxOsW1kWftWZV3otJ+0McmTcfLq7UPIGpdtB6MBYRkAAAAAAABAdXjhV1HHLiyLP4YpdVKmyLoGVxo82WDKW5b22oeWyz7SgjZB1rP2kzYmLyyL22pdPC7bDkYDwjIAAAAAAACA6vDCr6KOTVhmtci6hksaWlnkaSwNqrSttrPqE2OyLEFZHExJedH9CPIaf8earff6tdpxaTsYHQjLAAAAAAAAAKrDC7+KOnZPlsXYOg2bLFlhmYeUS7ilIZXSzX4EeS0alnnYdjA6EJYBAAAAAAAAVIcXfhV1osIyQdY1tIrDJ9tWlr2PNWobCb/SPh4pyHqe/Qi2rfRp6722WeOC0YKwDAAAAAAAAKA6vPCrqBMXlsmylKlxEKXrcTvv447yRJg+FSb1tl3e/QgSlGm7TmFZ3K83LhgdCMsAAAAAAAAAqsMLv4o6FmFZVUjgBNBPCMsAAAAAAAAAqsMLv4pKWNZAnu6KvzsMoNcQlgEAAAAAAABUhxd+FXXiwzL7sUY+xgj9hrAMAAAAAAAAoDq88KuoPFkGMEAIywAAAAAAAACqwwu/ikpYBjBACMsAAAAAAAAAqsMLv4pKWAYwQAjLAAAAAAAAAKrDC7+KSlgGMEAIywAAAAAAAACqwwu/ikpYBjBACMsAAAAAAAAAqsMLv4pKWAYwQAjLAAAAAAAAAKrDC7+KSlgGMEAIywAAAAAAAACqwwu/itpVWPaJo88Is+c93VgrzrTzZoTpM2c31urMW7gsKc/Lew45MmzZtrtlWbTl3dDt9lnb5emz7LhhNCEsAwAAAAAAAKgOL/wqatdhmXjHfY83SorhBWOyLuV5seFSlUFTt31lbZenzyqPAUYHwjIAAAAAAACA6vDCr6J2FZZJSFYmMJNQSMIhS7zeCRsuVRk0ddtX1nZ5+qzyGGB0ICwDAAAAAAAAqA4v/CpqV2GZUDYwO/SYM5pPktknzSQwkuBIVWy5fIRTXjVcSlvO2sbWiYosy3i03H5cNN7GPgkn62X3q23k3Gi97iNtOxhtCMsAAAAAAAAAqsMLv4o6sLBMQiQNouxHMCUI0tBIyrSNDY7iACprOc828X4krBKkXNYV259sm9afbVdkv1IuZd53t6VtB6MNYRkAAAAAAABAdXjhV1G7CsvKBmWCBD8aSsmrrIsSClklOLJtFRseectZ24iybNWAStsouq7bWLyQTyyzX21jw7Cs7WC0ISwDAAAAAAAAqA4v/CpqV2FZ2aBMkVBJwiYNlzQUipHyXoRlHrYvIWubbsMyD22j6BNp0n/WdjDaEJYBAAAAAAAAVIcXfhW167DsxlsfbKx1jwZC9imqeF3R4EjQ7TRcylrO2iZtP9pGSOtPymRdSWvX7X4Faadt07aD0YawDAAAAAAAAKA6vPCrqF2FZVWhgZMNibRM1Y8bSvikZV4A5S1nbZO2H9tGyNomrV2Z/dptRSVtOxhtCMsAAAAAAAAAqsMLv4o60LCsn2jYBDBMEJYBAAAAAAAAVIcXfhV1YsIyeRIr/i4xgEFDWAYAAAAAAABQHV74VdSxDsskHLMfXQQYNgjLAAAAAAAAAKrDC7+KOjFPlgEMI4RlAAAAAAAAANXhhV9FJSwDGCCEZQAAAAAAAADV4YVfRSUsAxgghGUAAAAAAAAA1eGFX0UlLAMYIIRlAAAAAAAAANXhhV9FTQ3LELE/EpYBAAAAAAAAVIMXfhXVDcukEBH7I2EZAAAAAAAAQDV44VdR7b16S1i2rVaJiL2VsAwAAAAAAACgOrzwq6ipYdn6Pe8iYo8lLAMAAAAAAACoDi/8KmpqWLZ025uI2GMJywAAAAAAAACqwwu/ipoaliFifyQsAwAAAAAAAKgGL/wqqr1Xb4ZlWoCI/ZOwDAAAAAAAAKAcXvhVVMIyxCGRsAwAAAAAAACgHF74VVTCMsQhkbAMAAAAAAAAoBxe+FVUwjLEIZGwDAAAAAAAAKAcXvhVVMIyxCGRsAwAAAAAAACgHF74VVTCMsQhkbAMAAAAAAAAoBxe+FVUwjLEIZGwDAAAAAAAAKAcXvhVVMIyxCGRsAwAAAAAAACgHF74VdSehmVLN70a5i7YEp5Zs8etR8QpCcsAAAAAAAAAyuGFX0XtWVh25Q3PhI9/ckY48au3J6/fOn0WoRlihoRlAAAAAAAAAOXwwq+i9iQsu3vuunDEsTeFR5/dnqwv3rg/nH3+w+E758xua4uIdQnLAAAAAAAAAMrhhV9F7UlYdsb354ZLr1nUUvbk8l3h7z8xPflopi3vxvcccmSLZ116l9uuW6XPOYs2uHWIvZKwDAAAAAAAAKAcXvhV1J6EZcd/+dbw0MKX2so/8ZlrwnPr9rWVFzUOs2T92NMua2njmTcEIyzDQUhYBgAAAAAAAFAOL/wq6liEZbIsZbaNZy/CsjwhHWIeCcsAAAAAAAAAyuGFX0XtSVg27Tv3hztmr20r/9Rh14UqvuTfC7Pe/7nvhBl3P5ksS4AlbUQNs3TdlnnttK0Xlmkop8o+tZ2sy8dBta7qj4bi+EtYBgAAAAAAAFAOL/wqak/CMvmfMOV7y2zZPQ9tSP5nTFvWrRJGZYVlVtvW207N007KdR/yGm+jgZvW6XaIeSQsAwAAAAAAACiHF34VtSdhmXyJ/2eOuC7MXbAlWV++5dXko5m3zVrd1rYbvTDLPuWlYZWaFoLlbSfKupTrdhKMibLsbeP1gZglYRkAAAAAAABAObzwq6g9Ccuuv2NpEpbdeOfyZF3+J8yjjrs5nPWDh3r+nWV2WYw/KqnLedup2l5e9QkywjKsUsIyAAAAAAAAgHJ44VdRKw3LFm/cn3xf2de/dU94fMmOljp52uynlz8Zjjj2pvCLxza11BXVC6Y0tJJXCb5k2QZc8XZ521mlPN7G1tlt0vpATJOwDAAAAAAAAKAcXvhV1ErDMvmeskuvWeTWqfOe3ho+d9QNpZ4wkyDKGodSEmhJubyKWi9Pgkm5PhmW1k77VfXL+rW9mhWOxeuInSQsAwAAAAAAACiHF34VtdKw7OOfnJE8XebVWb928t3hvkc2unXDqgZsiL2SsAwAAAAAAACgHF74VdRKw7KP/t0VbnnsKIZliL2WsAwAAAAAAACgHF74VdTKw7K8EpYhtkpYBgAAAAAAAFAOL/wqaqVhGSJ2L2EZAAAAAAAAQDm88KuohGWIQyJhGQAAAAAAAEA5vPCrqIRliEMiYRkAAAAAAABAObzwq6iEZYhDImEZAAAAAAAAQDm88KuohGWIQyJhGQAAAAAAAEA5vPCrqIRliEMiYRkAAAAAAABAObzwq6iEZYhDImEZAAAAAAAAQDm88KuohGWIQyJhGQAAAAAAAEA5vPCrqIRliEMiYRkAAAAAAABAObzwq6iEZYhDImEZAAAAAAAAQDm88KuohGWIQyJhGQAAAAAAAEA5vPCrqIRliEMiYRkAAAAAAABAObzwq6iEZYhDImEZAAAAAAAAQDm88KuohGWIQyJhGQAAAAAAAEA5vPCrqIRliEMiYRkAAAAAAABAObzwq6iEZYhDImEZAAAAAAAAQDm88KuoPQ3Llm56NcxdsCU8s2aPW4+IUxKWAQAAAAAAAJTDC7+K2rOw7Mobngkf/+SMcOJXb09ev3X6LEIzxAwJywAAAAAAAADK4YVfRe1JWHb33HXhiGNvCo8+uz1ZX7xxfzj7/IfDd86Z3dYWEesSlgEAAAAAAACUwwu/itqTsOyM788Nl16zqKXsyeW7wt9/Ynry0UxbXtRjT7ssvOeQI9vU8jmLNrjblTXe34y7n3Tb5VHG2Muxqv3aD1YjYRkAAAAAAABAObzwq6g9CcuO//Kt4aGFL7WVf+Iz14Tn1u1rK+/WfgZBdl8SlMl63KZKCbkmT8IyAAAAAAAAgHJ44VdRCctyGu+r1/smLJs8CcsAAAAAAAAAyuGFX0XtSVg27Tv3hztmr20r/9Rh14Uqv+Q/K8CSZX0CTJfPuvSu5ros63ayjZaLWm6Vcu1b+nr/577TrEvb3pbrvu34dFn60nZ2zKJ8vFTb60dN4761zGsnr3afec5BPFbsj4RlAAAAAAAAAOXwwq+i9iQsk/8JU763zJbd89CG5H/GtGVljQMduy7LGmhpAKXhkK5722mopnW2jaoBlq3ztpdyWZflOIDSZamP+7P1dt2Oy9bH+0xrJ8u6L9lG1m27tLFifyQsAwAAAAAAACiHF34VtSdhmXyJ/2eOuC7MXbAlWV++5dXko5m3zVrd1raMcaBj17Pq7Looy9as8Erba3na9lJunz6zfdhl3d4GXHHbeF23seqYbbt4Pa1OzBor9kfCMgAAAAAAAIByeOFXUXsSll1/x9IkLLvxzuXJuvxPmEcdd3M46wcP9fQ7y/IEQ/G6KMtanqbdXoItDbfStpfyPGGZ1unTXPp0V1xv1+VV1rXOmrVdWp1IWDZ4CcsAAAAAAAAAyuGFX0WtNCxbvHF/8n1lX//WPeHxJTta6uRps59e/mQ44tibwi8e29RS163dBENpbeMnu2K72V7K0z7aGPenbbSfuN5bT9tn2nad6vgY5mAlLAMAAAAAAAAohxd+FbXSsEy+p+zSaxa5deq8p7eGzx11QyVPmHUKf9Lq4nV5lXU1z3eISaCkT2Olba/fCybGAZQu2zai9i99yHraxyvT9hm3s+tZdVljxf5IWAYAAAAAAABQDi/8KmqlYdnHPzkjebrMq7N+7eS7w32PbHTrxlUJniSA8uqGzVEa6zhJWAYAAAAAAABQDi/8KmqlYdlH/+4Ktzx2EsMyefIr/l6wYXWUxjpOEpYBAAAAAAAAlMMLv4paeViW10kIyyRw0o82DvuTWqM01nGVsAwAAAAAAACgHF74VdRKwzJE7F7CMgAAAAAAAIByeOFXUQnLEIdEwjIAAAAAAACAcnjhV1EJyxCHRMIyAAAAAAAAgHJ44VdRCcsQh0TCMgAAAAAAAIByeOFXUQnLEIdEwjIAAAAAAACAcnjhV1EJyxCHRMIyAAAAAAAAgHJ44VdRCcsQh0TCMgAAAAAAAIByeOFXUQnLEIdEwjIAAAAAAACAcnjhV1EJyxCHRMIyAAAAAAAAgHJ44VdRCcsQh0TCMgAAAAAAAIByeOFXUQnLEIdEwjIAAAAAAACAcnjhV1EJyxCHRMIyAAAAAAAAgHJ44VdRCcsQh0TCMgAAAAAAAIByeOFXUQnLEIdEwjIAAAAAAACAcnjhV1EJyxCHRMIyAAAAAAAAgHJ44VdRKwvLbpm7JHz2pJ+EQz51SviDv/lSeM8hR7Yp5X/+8ZOTdtLe6wdxUiUsAwAAAAAAACiHF34VtZKw7J7HV4Y/+uiXw0+ufzDMWrg+LFy1020n5XMXbQyX3/ZYEppNv2O+2w5xEiUsAwAAAAAAACiHF34VtZKwTJ4Uk6DMq0tTArb3f+47bh3iJEpYBgAAAAAAAFAOL/wqaiVhmXz0Up4o8+qy/F//6li3vFuPPe0ytxxxFCQsAwAAAAAAACiHF34VtZKwTL6LTD96+bHjz3W/r0zK4+2kPC7L64y7n2zp/6xL70rUeimbs2hDyzaDVsYzjOPC4ZCwDAAAAAAAAKAcXvhV1ErCMgmAvPJOdrudBmU2dJKPdA57WIaYJWEZAAAAAAAAQDm88KuoIxmWSTAmgZmuS0imAZqWEZbhqElYBgAAAAAAAFAOL/wqauVhWfwxTO/jl6rdLq/6UUa7rk+USYimAZm0scv6fWa6vWpDN1mXvrTOPqnWaTsN63Q5rR9Z13EhWgnLAAAAAAAAAMrhhV9FHbknyyRosv+LZrysIZaGUvFTaFKu6xqAaXglyxqqafiVdzsdh26nAZnXj26HaCUsAwAAAAAAACiHF34VdSTDMt0u/t8vJbCKAyzv6TBdF6UPDcGkzgZZut7tdt56XIeoEpYBAAAAAAAAlMMLv4o6cmGZKCGYDavEONCSZW2X1kYkLMNhkbAMAAAAAAAAoBxe+FXUkQzLJKSKt5V177vBJNSKyzXkknrbj27jrXe7Xbwe1yGqhGUAAAAAAAAA5fDCr6JWFpZNu+Dm8OcfPzlZLqLXXyf1qS7bjw3ERCnTUEqeMBNlWcrsdmmhVrze7XbxelyHqBKWAQAAAAAAAJTDC7+KWklY9mf/8NXwD1/5brhhwbXhyb135laCI6+/LCVoioMxxHGQsAwAAAAAAACgHF74VdRKwrI/+uiJ4a4VN7iBWJbdhGWI4yphGQAAAAAAAEA5vPCrqJWEZX/+ma+Eqx+b7gZiac587prwex843u0PcRIlLAMAAAAAAAAohxd+FbWSsOzUyy4O//Xwr4bLH7oiPLHrdjccs147f3r40LHfDCeccaXbH+IkSlgGAAAAAAAAUA4v/CpqJWHZ0i17wymXXBz++O9OSD5a2ck/+NsTwtfOuzo8u2Gv2x/iJEpYBgAAAAAAAFAOL/wqaiVhGSKWl7AMAAAAAAAAoBxe+FVUwjLEIZGwDAAAAAAAAKAcXvhVVMIyxCGRsAwAAAAAAACgHF74VVTCMsQhkbAMAAAAAAAAoBxe+FVUwjLEIZGwDAAAAAAAAKAcXvhVVMIyxCGRsAwAAAAAAACgHF74VVTCMsQhkbAMAAAAAAAAoBxe+FVUwjLEIZGwDAAAAAAAAKAcXvhVVMIyxCGRsAwAAAAAAACgHF74VVTCMsQhkbAMAAAAAAAAoBxe+FVUwjLEIZGwDAAAAAAAAKAcXvhVVMIyxCGRsAwAAAAAAACgHF74VdSehWVX3LcgHHX6peEvDvtW+PNPnxwOO+2i8KOZD7ptEZGwDAAAAAAAAKAsXvhV1MrDsoVrXk6CsT/9xDfCqdffFS5+9Mlw6RNPhdNn3hfed9S3w8e+cl54bNlWd1vESZawDAAAAAAAAKAcXvhV1ErDshUvHkyCsr//5gXhxhUrw23r17c4c+3acOz5M8JHPn9m0tbrA3FSJSwDAAAAAAAAKIcXfhW10rBMPnopT5R5QZn1A8edHs66+l63D8RJlbAMAAAAAAAAoBxe+FXUSsOyo864LPnopReQWc+fNS989Evnun0gTqqEZQAAAAAAAADl8MKvolYalv3FZ09JvqPMC8is8uTZ7/31CW4feXzPIUe2eNald7ntYqXtnEUb2sqlLK0OsV8SlgEAAAAAAACUwwu/ilppWPZnn/hmuHzB025AZv35qtXhP3zg824feYyDLVk/9rTLWtp45g3ECM5wEBKWAQAAAAAAAJTDC7+KWmlYJl/uL//rpReQWS986PHkS/69PvIYh1myLGW2jSdhGQ6zhGUAAAAAAAAA5fDCr6JWGpb9aOaD4X1HfTv5Xy+9kEz9xKkXhmkXz3T7yKMXZr3/c98JM+5+MlnW8EzVNrIsbbTcfnxT1uPt9Gm1uFz3o9tJO3nVMsRuJCwDAAAAAAAAKIcXfhW10rBsxYsHw8e+fF449vwZbkgmyn8A8N7DTg3Pb97v9pFHCaaywjJbL2Uaikm5tJNlDcC0XdqyrsdBnG2b9zvTELMkLAMAAAAAAAAohxd+FbXSsEx8eMmW8NefPzN84LjTk//1Ur7MX76jTD56KU+U/cVh3wr3P7XW3TavcZglSggmZRpmWfUJsXg7KfcCNrus/ek2Ytp2iGUkLAMAAAAAAAAohxd+FbXysEw96+p7w6Ff+F7yv17+hw8enwRo8tHLZZsPuO2LGAdUNtDywi013i7taTS77PVHWIa9kLAMAAAAAAAAoBxe+FXUnoRltz20NJxwxpXh0OPOCX/2D99I/PAxZ4ZjTrs0zLh7QXh+U/cfwRTjgErWNbzSde+jkbY8DsFsn3ZZ17X/rO0Qy0hYBgAAAAAAAFAOL/wqaqVh2Q2/eCb8+cdPTp7YOv3i28Mtc5eERxZvSZQA7fvT70sCtN//6xPDj66dHZZt6e4pMwmorHFYpYGWaj+GKctaHgds2o+20e3i/uz+4nXEbiUsAwAAAAAAACiHF34VtZKw7NkNe8NnT/pJOORTp4SbH3iupe6ueSvC9Dvmt5Td8/jK5EmzDx1xRnjo2Rda6hAnVcIyAAAAAAAAgHJ44VdRS4dljy3dGv7yM6eGk75/fduTYrL+gcO/G/7kY19LAjVbJ8pHIv/oo19OnkCL6xAnTcIyAAAAAAAAgHJ44VdRS4dl8j1k8vFKr04+avkfP/KF8Gef/GaYdsHNbptr730qfOz4c906xEmSsAwAAAAAAACgHF74VdTSYVmWn/vmT8Off2paeP/R300+cum1QcS6hGUAAAAAAAAA5fDCr6L2NCyTj2F+8awZyfeZeR/DRMQpCcsAAAAAAAAAyuGFX0XtaViGiPklLAMAAAAAAAAohxd+FZWwDHFIJCwDAAAAAAAAKIcXfhWVsAxxSCQsAwAAAAAAACiHF34VlbAMcUgkLAMAAAAAAAAohxd+FZWwDHFIJCwDAAAAAAAAKIcXfhWVsAxxSCQsAwAAAAAAACiHF34VlbAMcUgkLAMAAAAAAAAohxd+FZWwDHFIJCwDAAAAAAAAKIcXfhWVsAxxSCQsAwAAAAAAACiHF34VlbAMcUgkLAMAAAAAAAAohxd+FZWwDHFIJCwDAAAAAAAAKIcXfhWVsAxxSCQsAwAAAAAAACiHF34VlbAMcUgkLAMAAAAAAAAohxd+FbV0WLZsy4HwvcvvCe//3HfCew45spB/+ZlTw7d/elvSh9c34iRJWAYAAAAAAABQDi/8KmrpsEyCsg8ecUY496aFYcaTuxMlCNPlLM+/7dnw3044L3zjhze6fSNOkoRlAAAAAAAAAOXwwq+ilg7L5Imyc256siUEyxuWiT/7xerw+399ots34iRJWAYAAAAAAABQDi/8KmrpsMwLxoqEZaK09/pGnCQJywAAAAAAAADK4YVfRR3psMx+T5osa7mWqTPufrKl7tjTLmuuW8+69K6kfs6iDW49Yi8lLAMAAAAAAAAohxd+FbWSsKwKvb7TlDBLtrEhmJTputRp4CVltn9ZlmDNC8Skzm6L2E8JywAAAAAAAADK4YVfRe3Zk2Ve2zSLtpewywZlsXHgZddlWZ4sk6fItF6U/qQ83haxXxKWAQAAAAAAAJTDC7+KOnJhmQRZndrbwEtCsPgjml4f+rSZ3RaxnxKWAQAAAAAAAJTDC7+K2pewbOGqneHDx5yZlP/9F84LT6/d3VIft89SgiwbfnlKf2r8/WRSJn1IuT6dZvvUersNYj8kLAMAAAAAAAAohxd+FbUvYdnpF98evvHDG8OzG/aGz3/nivD96a37iNtnKUFWp/YaeHltbZ0GZDY403q7DWI/JCwDAAAAAAAAKIcXfhW1L2HZ57750zDj7vqOfnbTQ0lgZuvj9p2UkCvvd5bJd5PZ7yezddqPfVLN1iP2U8IyAAAAAAAAgHJ44VdR+xKW3fzAc+HPP35y8nTZf/7Y18Jd81a01MftOykBV7JfE5hJwJX2dJhdt8vaT1qYhthPCcsAAAAAAAAAyuGFX0XtS1gm3v7QsvDls2eE+55Y3Vbnte+kBFqynZr1dJiEYVof19ntvHrEfklYBgAAAAAAAFAOL/wqas/DsrmLNoY/+uiXw4eOOCN87Phzk3Dqz/7hG+GRxVta+tBlxEmVsAwAAAAAAACgHF74VdSeh2USkt0yd0nLNtfe+1Tyv2LqOmEZImEZAAAAAAAAQFm88KuopcOyQz51SrjwriWpYdnTa3e3tFcXrtqZvD62dGv4vQ8c31aPOGkSlgEAAAAAAACUwwu/ilo6LJt2wc3hv51wXvjZL1a7YVmWEpQdOe3itv8dE3ESJSwDAAAAAAAAKIcXfhW1dFj2/Kb94Svfuzb8/l+fmIRkRZQnyiQoe3bDXrdvxEmSsAwAAAAAAACgHF74VdTSYRkiViNhGQAAAAAAAEA5vPCrqIRliEMiYRkAAAAAAABAObzwq6iEZYhDImEZAAAAAAAAQDm88KuohGWIQyJhGQAAAAAAAEA5vPCrqIRliEMiYRkAAAAAAABAObzwq6iEZYhDImEZAAAAAAAAQDm88KuohGWIQyJhGQAAAAAAAEA5vPCrqIRliEMiYRkAAAAAAABAObzwq6iEZYhDImEZAAAAAAAAQDm88KuohGWIQyJhGQAAAAAAAEA5vPCrqIRliEMiYRkAAAAAAABAObzwq6iEZYhDImEZAAAAAAAAQDm88KuohGWIQyJhGQAAAAAAAEA5vPCrqIRliEMiYRkAAAAAAABAObzwq6ilwrKPHX9ueM8hR4bf/+sTw6k/vsVtg4j5JCwDAAAAAAAAKIcXfhW1kifLFizfEf784yeHW+YucesRsbOEZQAAAAAAAADl8MKvolYSlok/unZ28qSZV4eInSUsAwAAAAAAACiHF34VtbKw7PlN+8MfffTLyccy8/p77/9C+OaZd7v9ZSnbzlm0obn+/s99Jxx72mUtbYqqfYpx/4j9kLAMAAAAAAAAoBxe+FXUysIy8fvT7wtHfOnqMO+OkMvrrtge/t17j3H7ytKGWRKSnXXpXW1tipoWkBGcYb8kLAMAAAAAAAAohxd+FbXSsOzptbvDf/rIl8LMGfvccCz2rLMWhA8dfrbbV5YaYElIVvaJMpWwDActYRkAAAAAAABAObzwq6iVhmXiaT++LRz7tevdcCz2vf/w7XDFLVMDyKsEWBKUyccvvToJ0ORV1iXokmVV29ly6UteNRTTZa0XNZSLy2fc/WSzT20nr1qGmFfCMgAAAAAAAIByeOFXUSsPyxau2hn+9w+dGO6+/g03IFMvuXBt+ONDTwrLthxw+8nSC6psnf1YpqxrCCbttc5unxaWxcvxdhqc2bZ234hFJCwDAAAAAAAAKIcXfhW18rBM/Nq514cTvj7TDcnEB2/7p/Dfjvhx+N6l97jbd1IDqzjI0jot0zDLKk9+SXn8VJrdLm1Z+9NtROlPwzPbFrGohGUAAAAAAAAA5fDCr6L2JCybtXB9Ehxl+eFjzgzPbtjrbt9J2V5CKQ3MvDpZ9sItLScsw2GTsAwAAAAAAACgHF74VdSehGU/unZ2+PsvnOfWVaENpeRjjzb4igMrWfc+GinlGnKV/RimrbNtEYtIWAYAAAAAAABQDi/8KmpPwjJ5auySnz/i1lVhHErJ010amMV1Gmip0lbK9ak0MSssk/Z2u7g/u694HbGIhGUAAAAAAAAA5fDCr6JWHpbJF/xLaNTtRywRJ1XCMgAAAAAAAIByeOFXUXvyZNkJZ1wZ/t37jml5AitW6m+Zu8TdHnESJSwDAAAAAAAAKIcXfhW1J2EZIhaXsAwAAAAAAACgHF74VVTCMsQhkbAMAAAAAAAAoBxe+FXUnoVlJ33/+uSL/p9eu7tZtmzLgeR/yfzcN3/a0hYRCcsAAAAAAAAAyuKFX0XtWVj22ZN+Ev7oo18OC5bvaJY9v2l/OORTp4QPHXFGS1tEJCwDAAAAAAAAKIsXfhW1Z2EZIhaTsAwAAAAAAACgHF74VVTCMsQhkbAMAAAAAAAAoBxe+FVUwjLEIZGwDAAAAAAAAKAcXvhVVMIyxCGRsAwAAAAAAACgHF74VVTCMsQhkbAMAAAAAAAAoBxe+FVUwjLEIZGwDAAAAAAAAKAcXvhVVMIyxCGRsAwAAAAAAACgHF74VVTCMsQhkbAMAAAAAAAAoBxe+FVUwjLEIZGwDAAAAAAAAKAcXvhVVMIyxCGRsAwAAAAAAACgHF74VVTCMsQhkbAMAAAAAAAAoBxe+FXU0mHZN354Y/izf/hGeP/nvhOm3zHfbYOInSUsAwAAAAAAACiHF34VtXRYdu29T4UfXTs7nPT968O/e98xYdbC9W67O59aFj77/QvDvBUvuvWIky5hGQAAAAAAAEA5vPCrqKXDMuunvvqj8PnvXNFcl2Dsy5deFf74c18J/+HQ48Lvf/KEcOJFV7Zsg4h1CcsAAAAAAAAAyuGFX0WtNCyTp8x+7wPHh+c37Q9nz7wr/Nu/PCr8l5NOCh+99sxw+PwfhY/deFb4w099yd0WcdIlLAMAAAAAAAAohxd+FbXSsGzZlgPhD/7mS+GSnz8S7lqyIvwvHzgmfHbe+UlQpsoTZlfNm9opItb9/7d3/19y1XWex/8TzzjurF/GQY/jmRlkFNTRARkcWL66jIkgJCIQAkNAEJFgRASMKGIU+aLDoII7oARCgBjA8EUIJCEh4auIIoQvgrrOuO45s/PZft/07dyufld139xq0kk/Huc8T6pu3apOqqt+4HWqG2MZAAAAdJONX20b6lgWxe8uO3D+kuryu45eWN534WljQ1kMZ2+bO78cdObnJtyvTa/b88iyfM2W9DZpV81YBgAAAN1k41fbhj6W/WDV+uoX/d/x0C/KP3/zO+UvjpxX9v3Gp8tffvL48qfvm1P2+eTp5Ys/uLE6967Nz5aLrr95wmNMlrFMu2PGMgAAAOgmG7/aNvSxLNrz4FPK4kv/rRrD4kcx/2rugrJw2ZXV9QeeeKks+f4N5f0LPlWNZ6/f+6Nl9cNPp4/TL2OZdseMZQAAANBNNn61bVrGsrMuvrbsfcTp1eUYyO578vly0YqbywFnnFP+299/rLz1I/PKe89fVA5Z/rnqE2efvOSbEx5jUP3GsrmLvlLdFsXl+nicWx+Pv1vz/s3bovo+cbl+vPqYNJ0ZywAAAKCbbPxq27SMZbevfboama5fvbH88KePlLcedGz5sw8dVd51xsnlwB8sHvcL/+NHNN9+xHHp4/QrHnuyT5Y1z4nLy667s7rcO5Y1L8c5cXt9vL4svRYZywAAAKCbbPxq27SMZdEBx55bFiy5stz35Nbypg8dUw689pxxI1ndEavOK3+695xyxeo16eNkNQeuZjF2xW11cU5Uf8qtrnlb8/yo/kRafU7zftJ0ZiwDAACAbrLxq23TNpZddNWK8o79jy8PPvlyOWzxF8u7Tl84biSL8Sw+aRafOPuLg+eXi3+4Mn2crGzIqoev+noMZPUgNtlY1ryt95zsNmk6MpYBAABAN9n41bZpG8vu3bK1vOE9c8u3f3RfWbZqdfmzfT9WDvnR58reS04tbznk2PKmfT9eDv/sBeXKVfek9x9UNmTFp8rqUawewepz4vKgH8PMftwy+xrSdGYsAwAAgG6y8att0zaWRXMWXVwVl+PTY3/y7n+q/i+YX/zBjdX/FTOOx+83i7Fq3lnLxt13UDFkNavHrhjL4nr8WX+yLI43fzyzdyyLP+vbIj+GqZ2VsQwAAAC6ycavtk3rWHbp91aXN+5zdDnq9EvKiUu/VVZveqY6Hp86ix/TjN9rFqNU/Ljm4kuH93UHVY9j2W3SzsxYBgAAAN1k41fbpm0si99Vtv/R51Rj2Ts/vKAaqA7+5BeqT5rFj2fG8Y+f+bVy9U33p/efruKTY72/w0yaCRnLAAAAoJts/GrbtI1lS5bdUA1kN615tLp+8nnfHhvMvnrN7eWBx7b9GOZrUf3jmXXZOdLOzlgGAAAA3WTjV9umbSw77cJryuv3mlN9wiyuX3D5zdVQFT+C2XuuJGMZAAAAdJWNX22btrHs+tUbq7HswPlLquFsj/0+Uf5uzqfTcyUZywAAAKCrbPxq27SNZdGXv3NrNZLFaHbYCReUuzc9l54nyVgGAAAAXWXjV9umdSyTNPWMZQAAANBNNn61zVgmzZCMZQAAANBNNn61zVgmzZCMZQAAANBNNn61zVgmzZCMZQAAANBNNn61zVgmzZCMZQAAANBNNn61zVgmzZCMZQAAANBNNn61zVgmzZCMZQAAANBNNn61re9YFjdImt7qN1/9ngMAAAB2XDZ+ta353+sTxrJ1z/xO0jRlLAMAAIDhysavtg0ey37+u3LP469KGnLx3jKWAQAAwHBl41fbBo5lDz7927LmsVckDbl4bxnLAAAAYLiy8attA8eyB556tdy15WVJQy7eW8YyAAAAGK5s/GrbwLHs/idfLXdsfrlvx53+9fK6PY8cSkfMOy/9GtLuWLy3jGUAAAAwXNn41baBY9l9T7xSfrzppb7FyPWzu38+lOKxsq8h7Y7Fe8tYBgAAAMOVjV9tGziW3fv4r8uqjS/2bdhjWfY1pN2xeG8ZywAAAGC4svGrbQPHsnsee7nc/vALfRv2WJZ9DWl3LN5bxjIAAAAYrmz8atvAsWzNlpfLreu39m1HxrJ+94nj2dfIinObffuWDel5g4r7TOW+O/r40qDivWUsAwAAgOHKxq+2DRzLfrL55XLLuq19iyEpG74G1e8+cTz7Gllx7pUrNlSXTzr/mrLXoYsmnDOsml9rKselqRTvLWMZAAAADFc2frVt4Fh25yMvlpsffK5v/YavZr3n9LtPHM++Rlace8VN6/teH2b9Hns6v6Z2/+K9ZSwDAACA4crGr7YNHMtWb3qhLF/7q77FYJQNX816z+l3nziefY2sOPdbN61Lr8flQ09aOvZ4cTwu1y254tb0fr3nZefE5fqx6+J6fa401eK9ZSwDAACA4crGr7YNHMt+vHFrufGBZ/sWY1E2erW53jyefY2sOPey5Q9Vl0847+ryrkMWjbstjjWvL7liZXU57tO8b7/LcX79GPXx+Br14/SeL7Ut3lvGMgAAABiubPxq2y47ljXrva0eseLP3tsPXfClsdGrPrc+r1mcV58TQ1lzgGvet3lsR1q+o62dYtl9p1D2d9XwMpYBAADA8GXjV9sGjmV3bHqh3LT2V32LwSgbvdpcbx7PvkZWnHv5TesmvS3+7H3c+LHJz19x67hzs/NuHi2Ox1h22Mj9bn5w5NhocfyKkfs1j20r/x1VK3aTsn/btnqfhz41ntuo+ZzPpuK9ZSwDAACA4crGr7YNHMt+8siL5ZaHnutbDEbZ8LUjxWNlXyMrzr3y5vWT3rZy9Pr5V91WVq57rly1Yn11PS5HcTmOrVz3fHV54fnXlFtHLjeL499esaEcvnDpttvXjxwfqTp+y4bq8m0aV/0cjavnee0tvgfb2/b9SRv9vka93/tdqXhvGcsAAABguLLxq20Dx7I1W14ut67f2rcYjLLha0eKx8q+Rlac+51bNpTbNmydUHXbym233b7hhfIvKx+ujtXF9dsffqGqun7rtuvxZ/O8I07+clk1es7VI7fF5b897LSquBy3x20fGfnzxyPXqzZOtRcHtvo1Lvs7jC/7NyTVz8No8TxNtfp7kjbyfczq/d5PaOS1EmWvoZ1dvLeMZQAAADBc2fjVtoFj2d2Pvlxuq0aJvEOOWTJuYOrSew8+tXrMcYNINpyMturhF/u3cXv5+LOt+LrjhqNNU+uOTS8N7pGpdecML/s7p2XPQaPsOUxrfC+y71ez5vc4fQ2Mlr12xmq81npf29NdvLeMZQAAADBc2fjVtoFj2X2P/zodKqbavM9eXj74sbPLoSdeVHXbhufHbptsoMpGl7FGR5ps4Mm6q27z9pb+64/Luw87bdyxn2x+OW9L/+ITQl2L4WQmlf0d25Y9V2Nlz/FIze9F2uj3MfseZ01lzMtee1Wjr8/m63mYxXvLWAYAAADDlY1fbRs4lt3/xCvbB4cWrdq4tRxx8tJy8AkXlPi//sVwcezZl5X9Pr64rFz3bLlz80tjbR9DYixptGVb6djS09hIE0NPn+oh6NrVm8c+zRaX73701+Xux7Z3T4vubfZ4u2IsmdgrO7mJf6fs7z6wxnOSPWf9an4Pqu/JhEaHvEGNvg6y10hv9etrwutu9PXYfI2Oa+S1PG6I28HivWUsAwAAgOHKxq+2DRzLHnjylbHxYKrduu7Z8g/Hfq7MO/uycsemreUnW14a61Nfvrbs85Ezyk33Pb194Go2OnrUw0i/7ql7LK852ExodNTJhqHeftrsicHF+DFpI89ns3h+Z3K9f9/039RT9tyMq/GcZs95b9kI11v2GqgafZ1kr6FmvWNbb83X8Fgjr/Uoew9MpXh+jWUAAAAwXNn41baBY9lDI39m40JWPUwceuIF5dQLrxk3WjSHjfMuv7l8cO7Z266PDiHZSNJbOrw0yoabqtGhp3cI6tfapwb1atWDgxp5zuri+Rt2657esbLH6lrz35o+F6PVz1v+nG4r+15kTTbcZa+NZtlrq7fJBrrma3us0dd/9t7IiufPWAYAAADDlY1fbRs4lq17+jcl+5G5urEBoTkwjJb/mN9I1aAxeWMDSHMgabR9QHl1e0+Nb/tIkzc26Iz8e3vbPgr9Znwjz0lv8TxN1vpmP+/ehp//dkpl921d4++e/dt6y56jCc/j6PObPfcTR7a83u/3uNfC6Osje+1Ujb6+stdeb/GaTV/LI2Wv/eo9Mfoe6Vc8T8YyAAAAGK5s/GrbwLFs/TO/K/c98eqEflr35MTuH+s3E3tqWw8MaG2zn+U9OK7fju/pbT00oHXNfp63Pmvk+Yg2TLGH637Rv41d+2WfsnNblP1dxxr9d2X/5qz6ecue0+y5r2p8j7LvYV39/Z7wOmi8RrLXUFXjtZa9Fuvq1236mh59vWfvhfp9kr2H4vkwlgEAAMBwZeNX2waOZTGa9A4Hkw9Z2XAxUmPYyEaPuuZIko0oEweXGGFGGx1lssGmtx0bsf531aZfTt4jvT2bt3kq/Wp7W371+x2q+Rjp1+gp+7tW9fy7sn97b/Xzlj2n2XM/Vs/3rF/bx7hm418n2Wup+VrLXot1zddu+toeKXsvVI2+X3rfR/FvN5YBAADAcGXjV9sGjmW9w8hY2Ygy2rax5fcTqwabfMjp7dHouf49lvbv43p8kp6oe34H2rqtJ7f+x8Ceqnuhfz8b1IvbenpCf2jZ+PvXj5t+zdGyv+tYo/+u7N/crH6e0udwska/P9n3rlnv9z17bWSvobF6Xnv9ql+/6Wu75z0woew9NJKxDAAAAIYrG7/aNnAskzS91W+++j0HAAAA7Lhs/Gpb87/Xx41lkl7bjGUAAADQTTZ+tc1YJs2QjGUAAADQTTZ+tc1YJs2QjGUAAADQTTZ+tc1YJs2QjGUAAADQTTZ+tc1YJs2QjGUAAADQTTZ+tc1YJs2QjGUAAADQTTZ+tc1YJs2QjGUAAADQTTZ+tc1YJs2QjGUAAADQTTZ+tc1YJs2QjGUAAADQTTZ+ta3zWLb8rvvL/1xwVnndnkdO2oHzTi/fX7n9C0ranrEMAAAAusnGr7Z1HstiKLvqB98o/1XunbRb7vrXsvfhJ6aPI832jGUAAADQTTZ+ta3zWBafGMuGsX7F+dnjSLM9YxkAAAB0k41fbdslx7J4jGZnXXxtWb5mS3U5/szuI830jGUAAADQTTZ+tW2XHcuMYtrdMpYBAABAN9n41bahjmWHH39adb23OG4skwZnLAMAAIBusvGrbTvlk2W9HXbCBelj9yvuk41lzeNxee6ir1R/1teXXXdn9Wd9OX58s74el+vHqe8XxeX6uDSdGcsAAACgm2z8attOGcuyx+g9Nqh6yKqL4as+3hzLmgNYXN/7iNOry/VoVt9eX6/PbdZ8TGk6M5YBAABAN9n41bahjmVtfgyzvq2+3HzMyYrzp/LJsuY5ba43P4HWe540XRnLAAAAoJts/GrbLvvJsmzAah7vPWeq16O4XB+PT6M1z5OmK2MZAAAAdJONX23baWNZ/Nm83HzMyYrzswGrebz3nKlej0+V1T+uGdd7z5OmK2MZAAAAdJONX20b6li2o/83zOzYoOL8bMBqHu89p831GMvievzpk2V6rTKWAQAAQDfZ+NW2XfKTZdLumLEMAAAAusnGr7bttLGs9zF6j0mzLWMZAAAAdJONX20zlkkzJGMZAAAAdJONX23rNJbtf/Q51dA1jOKxsq8hzZaMZQAAANBNNn61rfMnyyQNJ2MZAAAAdJONX20zlkkzJGMZAAAAdJONX20zlkkzJGMZAAAAdJONX20zlkkzJGMZAAAAdJONX20zlkkzJGMZAAAAdJONX20zlkkzJGMZAAAAdJONX20zlkkzJGMZAAAAdJONX20zlkkzJGMZAAAAdJONX20zlkkzJGMZAAAAdJONX20zlkkzJGMZAAAAdJONX20zlkkzJGMZAAAAdJONX20zlkkzJGMZAAAAdJONX20zlkkzJGMZAAAAdJONX22btrHspjWPljmLLi7vPvTUsufBp5QjTrqwXLtyXXquJGMZAAAAdJWNX22blrHsoqtWlHfsf3z15+1rny53bfhlufR7q8tfH7iwnLH0u+l9pNmesQwAAAC6ycavtg19LItPlO2x3yeqkaz3tnu3bC3v/PCCcvVN90+4TZrtGcsAAACgm2z8atvQx7KjTr+kLL60/2Msu+6OcsCx56a3SbM5YxkAAAB0k41fbRv6WLb3EaeX61dvTG+L7t70XHnz+49Jb5Nmc8YyAAAA6CYbv9o29LHs9XvNKQ8++XJ6W93r9jwyPd62uYu+UpXd1iy+3vI1W9Lb+hXnT+V+Uz1PmixjGQAAAHSTjV9tG/pYNpUhbBifLItxKj7FFk02VO3sMWtHv74RbnZlLAMAAIBusvGrbTtlLItf9J8db9NZF187ruycOmOZdoWMZQAAANBNNn61baeMZcOo/kRZFJebt8Wx+HtEMaQ1R6e4vOy6O8duj8v1OVFzeIvrzftN5bz4u9TnNL9OVP/IaH05/ozr9eXec3qPNf9dUTx+HM8eU7texjIAAADoJhu/2ja0sSx+cf/chZ8vf/6+ueMGnay//cejyrlLl6WPM5ViNGoOZL0/ihlfox6SsrGsvm89ZtXDV309LtfnNu9Xj1b9zovj9TnNmo9TX2+Obc2a52b3q/9dcbz33H6PqV0jYxkAAAB0k41fbRvaWHbkyUvL/AUnlZfuOqmU9ScPbN31J5S9DzqmXPq91eljTVaMQs1hKC43P33V+0mzyQaoftener/6chSXe0erQfeN6vGtrvdx43L92PV9ovg31+NZ81ztmhnLAAAAoJts/Grb0May+KX9UxnK6i7/0vwy76wd+3RZPSr1FrfFYLSzxrL6thjL4li/Iat5Pf6M6/VtzU/JDTovMpbtXhnLAAAAoJts/Grb0MayGGt6B7EfXX5c+cDBc6phrPe2OHbC4svTxxpUjEO9Y1gUx5rDUX25Hq6yAWqy61O9X+9tUXzd+hNmg+7b/PfEsUGPG9frf1d9bvO25rna9TKWAQAAQDfZ+NW2oY1lb3jP3PKb+z8zbhB774Hbfn/Zm/f5p3HHoysvPnGHPlkWn6bq/THHKI7VP4oZg1J83ei1HMuaXzeqz42/V1yv/371+fXtMZbFsfgzqm/rvV8cj+t1zcfova5dL2MZAAAAdJONX20b2lh24Pwl5buXnT1uEItPj8WIs+Qzx447Hh19wj+Xi65akT6WNBszlgEAAEA32fjVtqGNZcuuu6O8//ATyx/XLhw3isVY1rwebbztC+Vt+84vd234ZfpY0mzMWAYAAADdZONX24Y2lkVzFl1cFpy6cNxgtnn5ieOGsl/dcWr5wEdOKV+47Mb0MaTZmrEMAAAAusnGr7YNdSy7d8vWcswZl5T3HDSv3HHN8eV3924fzZ5dtaBcs+y06hNl2e8ck2Z7xjIAAADoJhu/2jbUsazuq9fcXg497tyyxwc+Xt75oWPKW95/VHnPoSdXnzy7fvXG9D7SbM9YBgAAAN1k41fbpmUsa3bHQ7+oPnGW3SZpe8YyAAAA6CYbv9o27WOZpKllLAMAAIBusvGrbcYyaYZkLAMAAIBusvGrbcYyaYZkLAMAAIBusvGrbcYyaYZkLAMAAIBusvGrbcYyaYZkLAMAAIBusvGrbcYyaYZkLAMAAIBusvGrbcYyaYZkLAMAAIBusvGrbcYyaYZkLAMAAIBusvGrbcYyaYZkLAMAAIBusvGrbcYyaYZkLAMAAIBusvGrbcYyaYZkLAMAAIBusvGrba/pWPbtH91XjjjpwnLkyUvL7WufTs+RZmvGMgAAAOgmG7/aNtSx7K4NvywnLL68XHHDPRNuu3bluvLGfY6ubt9jv0+UB598uTp21sXXVpd7z5dmW8YyAAAA6CYbv9o2tLFs2XV3VCPYcZ+9rOx58CnlwPlLyq0/fXLs9vhE2Rcuu7G6fcGSK6tj8QmzN7//mLJk2Q1j50mzNWMZAAAAdJONX20b2lgWY9jiS7fdNz4pFmNZjGP17e8+9NTyw7s2V58si0+Yxflv/eD8cun3VpcDjj137DxptmYsAwAAgG6y8attQxvL4tNip114zdj1+PHKU8+/euz6nEUXl4uuWlFdvnvTc9Wnyc5Y+t3qzxjO6vOk2ZqxDAAAALrJxq+2DW0su+Dym8veR5xe/R6yuB6fGNv/6HPGbr9+9cbqxzSvvun+sWPXrFhbfcos+x1n/Zq76CvVENc8tuy6O6vjzWNtet2eR5bla7akt02luG/Xx5CMZQAAANBNNn61bWhjWfTVa24v79j/+OpHLeNHMf9uzqfH/T6y8y+7seyx7yeqUW3fj51d/b6y+kc3p1o2jMX1ON481qZ+Q5cBTK9lxjIAAADoJhu/2jbUsSy6d8vW6hf8x6fF4hf8x+8li99VFrd9/MyvVQPUied+q/pUWfw4Zu/9J6v+FFfzWO/1tnUZy7p8ok1qZiwDAACAbrLxq21DH8ui+FHLd354QXngsZeqX/IfnySLwSw+dRbj2Q13PpLeb6rF49WfJGt+0ix+PDMGriiO1cNaFPep71/fHn/W1+tRrHlbXf34zceL4jGb96sv954Xx3ofuz4m1RnLAAAAoJts/Gpb57HsytvXlb3nLR43DrXpb+Z+uiz90d3pY/crRrH695bF+JT9CGYcbw5kzfvE160v19dj4GqOcM3jzevNka55e7/LcV6/rys1M5YBAABAN9n41bbOY1kMZQd//XvlzCee2aE++v0V5e0HL0wfu1/1sBWXm5/uiiEqBql+1Z8Qi8v1ferr8Ti9Q1bzvPgzrsflGMDisZpDXX1ufV6zfl9XamYsAwAAgG6y8attnceyN7z36HLKQ5vTISx672lfKnse97n0tuj0zU9VI1L22IOqPwVWj2bNMSuK4avfp7h6R6u4Ho9Tj1rZefXjx5/1eYPGsvoxmjUfT+rNWAYAAADdZONX2zqPZR9a9KXy18d8tiza9Pi4Eewfl/5LOeiS75Y37HN0NRId9JWry36f/+a4c2Ioe8/CL1Y/ipk99qDqT5HVg1iMUPVwFsVtUx2t6usxfjUHtuy8fuNc89y4nA11vY8nNTOWAQAAQDe9w9fXv3NLOeijZ/Ytbu+9T+exbO0Tvy5v3G9+Oene9WMj2HGr7quGoeivjj6r7HX858euz71u5dh5cZ83/v28smbL1vSxB1WPVc3xKcau+uvE8fjUV3096v0UWH2/5vUYw+pBrH68+pNkcbx+rEGPEX82z6vv33sfqZmxDAAAALrpHb6eeP735Uvf/GE6lMXxuL33Pp3HsugtB5w4biyL3vepL1efKotPj8X1Pz9wQfmb+eeMOyfuE/fNHnOmVQ9e/YohLDsuTTVjGQAAAHTTO3xFG59+pZz31WvHDWVxPY5n50/LWHbCXWvLf99vfjUgHfKN66pf4v8ne82pxrN5K9bskmPZoJq/O03a0YxlAAAA0E02fkVPPP/vZcGZX6uGsnknX1QeeSYfyqJpGcvi02Rv/R8Ly9sOP3XsRxH3OPSUakBr/s8AdvWxrPnjln68Ul0zlgEAAEA32fhVFwPZosWXlbWPPp/eXjctY1mzNx9wQvWpsuy23eWTZdIwMpYBAABAN9n41bahjGV7Hf2ZctQNq9JBbFDxPwJ4+6GnpI8pzbaMZQAAANBNNn61bShj2ZJrV1X/R8z4P1+26U37H1dOWva/0seUZlvGMgAAAOgmG7/aNpSxLLp9w7PlkuX3tmr5Az9LH0uajcWb8Q9//M/RtzcAAADQVjZ+telnL/5xeGOZpG7Fm/H5V/4w+vYGAAAA2soGsDY99vx/GMukmVK8GR984pXy4m/+T/nP//dfo29zAAAAYKqyAWwqPfPr/1sNZWtH/rvcWCbNkOLNKEmSJEmSdn71f6sbyyRJkiRJkqTRjGWSJEmSJEnSaGNjmSRJkiRJkqR/K/8fIz03+zSvdJwAAAAASUVORK5CYII=;" vertex="1" parent="1">
          <mxGeometry x="989.0041176470586" y="-226.99882352941177" width="1227" height="759" as="geometry" />
        </mxCell>
        <mxCell id="qv6ct7YELpAA5mXu1dIA-8" style="edgeStyle=orthogonalEdgeStyle;rounded=0;orthogonalLoop=1;jettySize=auto;html=1;" edge="1" parent="1" source="qv6ct7YELpAA5mXu1dIA-1" target="qv6ct7YELpAA5mXu1dIA-7">
          <mxGeometry relative="1" as="geometry" />
        </mxCell>
        <mxCell id="qv6ct7YELpAA5mXu1dIA-1" value="" style="image;html=1;image=img/lib/clip_art/people/Construction_Worker_Man_128x128.png" vertex="1" parent="1">
          <mxGeometry x="-65" y="218" width="80" height="80" as="geometry" />
        </mxCell>
        <mxCell id="qv6ct7YELpAA5mXu1dIA-5" style="edgeStyle=orthogonalEdgeStyle;rounded=0;orthogonalLoop=1;jettySize=auto;html=1;" edge="1" parent="1" source="qv6ct7YELpAA5mXu1dIA-2" target="qv6ct7YELpAA5mXu1dIA-3">
          <mxGeometry relative="1" as="geometry" />
        </mxCell>
        <mxCell id="qv6ct7YELpAA5mXu1dIA-20" style="edgeStyle=orthogonalEdgeStyle;rounded=0;orthogonalLoop=1;jettySize=auto;html=1;" edge="1" parent="1" source="qv6ct7YELpAA5mXu1dIA-2" target="qv6ct7YELpAA5mXu1dIA-19">
          <mxGeometry relative="1" as="geometry" />
        </mxCell>
        <mxCell id="qv6ct7YELpAA5mXu1dIA-2" value="" style="image;html=1;image=img/lib/clip_art/computers/Software_128x128.png" vertex="1" parent="1">
          <mxGeometry x="291" y="-37" width="80" height="80" as="geometry" />
        </mxCell>
        <mxCell id="qv6ct7YELpAA5mXu1dIA-3" value="" style="image;html=1;image=img/lib/clip_art/computers/Workstation_128x128.png" vertex="1" parent="1">
          <mxGeometry x="321" y="123" width="80" height="80" as="geometry" />
        </mxCell>
        <mxCell id="qv6ct7YELpAA5mXu1dIA-6" value="Windows Service" style="text;html=1;align=center;verticalAlign=middle;resizable=0;points=[];autosize=1;strokeColor=none;fillColor=none;fontSize=20;" vertex="1" parent="1">
          <mxGeometry x="247" y="-67" width="171" height="36" as="geometry" />
        </mxCell>
        <mxCell id="qv6ct7YELpAA5mXu1dIA-24" style="edgeStyle=orthogonalEdgeStyle;rounded=0;orthogonalLoop=1;jettySize=auto;html=1;" edge="1" parent="1" source="qv6ct7YELpAA5mXu1dIA-7" target="qv6ct7YELpAA5mXu1dIA-23">
          <mxGeometry relative="1" as="geometry" />
        </mxCell>
        <mxCell id="qv6ct7YELpAA5mXu1dIA-7" value="" style="shape=image;verticalLabelPosition=bottom;labelBackgroundColor=default;verticalAlign=top;aspect=fixed;imageAspect=0;image=https://cdn.icon-icons.com/icons2/37/PNG/512/barcode_scanner_4249.png;" vertex="1" parent="1">
          <mxGeometry x="-55" y="110" width="60" height="60" as="geometry" />
        </mxCell>
        <mxCell id="qv6ct7YELpAA5mXu1dIA-14" style="edgeStyle=orthogonalEdgeStyle;rounded=0;orthogonalLoop=1;jettySize=auto;html=1;" edge="1" parent="1" source="qv6ct7YELpAA5mXu1dIA-9" target="qv6ct7YELpAA5mXu1dIA-12">
          <mxGeometry relative="1" as="geometry" />
        </mxCell>
        <mxCell id="qv6ct7YELpAA5mXu1dIA-9" value="" style="shape=image;verticalLabelPosition=bottom;labelBackgroundColor=default;verticalAlign=top;aspect=fixed;imageAspect=0;image=https://ctadigital.com/wp-content/uploads/2023/10/ADD-MGBSM-Angle-1-scaled.jpg;" vertex="1" parent="1">
          <mxGeometry x="-162" y="-50" width="80" height="120" as="geometry" />
        </mxCell>
        <mxCell id="qv6ct7YELpAA5mXu1dIA-13" style="edgeStyle=orthogonalEdgeStyle;rounded=0;orthogonalLoop=1;jettySize=auto;html=1;" edge="1" parent="1" source="qv6ct7YELpAA5mXu1dIA-11" target="qv6ct7YELpAA5mXu1dIA-12">
          <mxGeometry relative="1" as="geometry" />
        </mxCell>
        <mxCell id="qv6ct7YELpAA5mXu1dIA-11" value="" style="image;html=1;image=img/lib/clip_art/general/Empty_Folder_128x128.png" vertex="1" parent="1">
          <mxGeometry x="-93" y="-145" width="80" height="80" as="geometry" />
        </mxCell>
        <mxCell id="qv6ct7YELpAA5mXu1dIA-15" style="edgeStyle=orthogonalEdgeStyle;rounded=0;orthogonalLoop=1;jettySize=auto;html=1;" edge="1" parent="1" source="qv6ct7YELpAA5mXu1dIA-12" target="qv6ct7YELpAA5mXu1dIA-3">
          <mxGeometry relative="1" as="geometry">
            <Array as="points">
              <mxPoint x="199" y="-103" />
              <mxPoint x="199" y="170" />
            </Array>
          </mxGeometry>
        </mxCell>
        <mxCell id="qv6ct7YELpAA5mXu1dIA-12" value="" style="image;html=1;image=img/lib/clip_art/general/Full_Folder_128x128.png" vertex="1" parent="1">
          <mxGeometry x="85" y="-143" width="80" height="80" as="geometry" />
        </mxCell>
        <mxCell id="qv6ct7YELpAA5mXu1dIA-16" value="Mappe på pc" style="text;html=1;align=center;verticalAlign=middle;resizable=0;points=[];autosize=1;strokeColor=none;fillColor=none;fontSize=20;" vertex="1" parent="1">
          <mxGeometry x="55" y="-179" width="134" height="36" as="geometry" />
        </mxCell>
        <mxCell id="qv6ct7YELpAA5mXu1dIA-17" value="" style="image;html=1;image=img/lib/clip_art/computers/Server_128x128.png" vertex="1" parent="1">
          <mxGeometry x="662.5" y="-184" width="80" height="80" as="geometry" />
        </mxCell>
        <mxCell id="qv6ct7YELpAA5mXu1dIA-18" value="Uniconta API" style="text;html=1;align=center;verticalAlign=middle;resizable=0;points=[];autosize=1;strokeColor=none;fillColor=none;fontSize=20;" vertex="1" parent="1">
          <mxGeometry x="636" y="-212" width="134" height="36" as="geometry" />
        </mxCell>
        <mxCell id="qv6ct7YELpAA5mXu1dIA-21" style="edgeStyle=orthogonalEdgeStyle;rounded=0;orthogonalLoop=1;jettySize=auto;html=1;" edge="1" parent="1" source="qv6ct7YELpAA5mXu1dIA-19" target="qv6ct7YELpAA5mXu1dIA-17">
          <mxGeometry relative="1" as="geometry">
            <mxPoint x="636.5" y="-41" as="sourcePoint" />
          </mxGeometry>
        </mxCell>
        <mxCell id="qv6ct7YELpAA5mXu1dIA-19" value="" style="image;html=1;image=img/lib/clip_art/networking/Email_128x128.png" vertex="1" parent="1">
          <mxGeometry x="506" y="-79" width="80" height="80" as="geometry" />
        </mxCell>
        <mxCell id="qv6ct7YELpAA5mXu1dIA-22" value="Data Pakke" style="text;html=1;align=center;verticalAlign=middle;resizable=0;points=[];autosize=1;strokeColor=none;fillColor=none;fontSize=20;" vertex="1" parent="1">
          <mxGeometry x="488" y="-104" width="121" height="36" as="geometry" />
        </mxCell>
        <mxCell id="qv6ct7YELpAA5mXu1dIA-25" style="edgeStyle=orthogonalEdgeStyle;rounded=0;orthogonalLoop=1;jettySize=auto;html=1;entryX=0;entryY=0.5;entryDx=0;entryDy=0;" edge="1" parent="1" source="qv6ct7YELpAA5mXu1dIA-23" target="qv6ct7YELpAA5mXu1dIA-9">
          <mxGeometry relative="1" as="geometry" />
        </mxCell>
        <mxCell id="qv6ct7YELpAA5mXu1dIA-23" value="" style="image;html=1;image=img/lib/clip_art/people/Construction_Worker_Man_128x128.png" vertex="1" parent="1">
          <mxGeometry x="-231" y="100" width="80" height="80" as="geometry" />
        </mxCell>
        <mxCell id="qv6ct7YELpAA5mXu1dIA-26" value="Scanner i Dockingstation" style="text;html=1;align=center;verticalAlign=middle;resizable=0;points=[];autosize=1;strokeColor=none;fillColor=none;fontSize=20;" vertex="1" parent="1">
          <mxGeometry x="-241.5" y="-50" width="239" height="36" as="geometry" />
        </mxCell>
        <mxCell id="qv6ct7YELpAA5mXu1dIA-28" value="" style="image;html=1;image=img/lib/clip_art/people/Suit_Man_Green_128x128.png" vertex="1" parent="1">
          <mxGeometry x="657.5" y="230" width="80" height="80" as="geometry" />
        </mxCell>
        <mxCell id="qv6ct7YELpAA5mXu1dIA-30" value="Uniconta Bruger" style="text;html=1;align=center;verticalAlign=middle;resizable=0;points=[];autosize=1;strokeColor=none;fillColor=none;fontSize=20;" vertex="1" parent="1">
          <mxGeometry x="619" y="311" width="163" height="36" as="geometry" />
        </mxCell>
        <mxCell id="qv6ct7YELpAA5mXu1dIA-34" style="edgeStyle=isometricEdgeStyle;rounded=0;orthogonalLoop=1;jettySize=auto;html=1;endArrow=none;endFill=0;entryX=1;entryY=0.5;entryDx=0;entryDy=0;" edge="1" parent="1" source="qv6ct7YELpAA5mXu1dIA-28" target="qv6ct7YELpAA5mXu1dIA-35">
          <mxGeometry relative="1" as="geometry" />
        </mxCell>
        <mxCell id="qv6ct7YELpAA5mXu1dIA-35" value="" style="image;html=1;image=img/lib/clip_art/computers/Touch_128x128.png;rotation=90;" vertex="1" parent="1">
          <mxGeometry x="1599" y="-46" width="80" height="80" as="geometry" />
        </mxCell>
        <mxCell id="qv6ct7YELpAA5mXu1dIA-36" value="" style="shape=flexArrow;endArrow=classic;startArrow=classic;html=1;rounded=0;" edge="1" parent="1" source="qv6ct7YELpAA5mXu1dIA-17">
          <mxGeometry width="100" height="100" relative="1" as="geometry">
            <mxPoint x="1098" y="200" as="sourcePoint" />
            <mxPoint x="983.003333333334" y="-116.54274137382663" as="targetPoint" />
            <Array as="points">
              <mxPoint x="875" y="-144" />
            </Array>
          </mxGeometry>
        </mxCell>
        <mxCell id="qv6ct7YELpAA5mXu1dIA-38" value="&lt;font style=&quot;font-size: 20px;&quot;&gt;Twoway data tunnel&lt;/font&gt;" style="edgeLabel;html=1;align=center;verticalAlign=middle;resizable=0;points=[];" vertex="1" connectable="0" parent="qv6ct7YELpAA5mXu1dIA-36">
          <mxGeometry x="-0.0169" y="-3" relative="1" as="geometry">
            <mxPoint x="-1" y="29" as="offset" />
          </mxGeometry>
        </mxCell>
      </root>
    </mxGraphModel>
  </diagram>
</mxfile>
